<?xml version="1.0" encoding="UTF-8" standalone="no"?>
<svg
   id="svg4306"
   width="22"
   height="22"
   version="1.1"
   style="enable-background:new"
   sodipodi:docname="restore.svg"
   inkscape:version="1.3.2 (091e20ef0f, 2023-11-25)"
   xmlns:inkscape="http://www.inkscape.org/namespaces/inkscape"
   xmlns:sodipodi="http://sodipodi.sourceforge.net/DTD/sodipodi-0.dtd"
   xmlns="http://www.w3.org/2000/svg"
   xmlns:svg="http://www.w3.org/2000/svg"
   xmlns:rdf="http://www.w3.org/1999/02/22-rdf-syntax-ns#"
   xmlns:cc="http://creativecommons.org/ns#"
   xmlns:dc="http://purl.org/dc/elements/1.1/">
  <metadata
     id="metadata28">
    <rdf:RDF>
      <cc:Work
         rdf:about="">
        <dc:format>image/svg+xml</dc:format>
        <dc:type
           rdf:resource="http://purl.org/dc/dcmitype/StillImage" />
      </cc:Work>
    </rdf:RDF>
  </metadata>
  <defs
     id="defs26" />
  <sodipodi:namedview
     inkscape:document-rotation="0"
     pagecolor="#cdcdcd"
     bordercolor="#030303"
     borderopacity="1"
     objecttolerance="10"
     gridtolerance="10"
     guidetolerance="10"
     inkscape:pageopacity="0"
     inkscape:pageshadow="2"
     inkscape:window-width="1920"
     inkscape:window-height="996"
     id="namedview24"
     showgrid="false"
     inkscape:zoom="8"
     inkscape:cx="40.375"
     inkscape:cy="32.875"
     inkscape:window-x="0"
     inkscape:window-y="0"
     inkscape:window-maximized="1"
     inkscape:current-layer="svg4306"
     inkscape:snap-bbox="true"
     inkscape:bbox-nodes="true"
     inkscape:lockguides="false"
     inkscape:showpageshadow="2"
     inkscape:pagecheckerboard="0"
     inkscape:deskcolor="#d1d1d1">
    <inkscape:grid
       type="xygrid"
       id="grid853"
       originx="0"
       originy="0"
       spacingy="1"
       spacingx="1"
       units="px"
       visible="false" />
  </sodipodi:namedview>
  <style
     type="text/css"
     id="current-color-scheme" />
  <g
     id="g2">
    <rect
       id="rect4266"
       width="22"
       height="22"
       x="0"
       y="0"
       style="opacity:0.00100002;fill:#bfbfbf;fill-opacity:1;fill-rule:nonzero;stroke:none;stroke-width:2;stroke-linecap:round;stroke-linejoin:round;stroke-miterlimit:4;stroke-dasharray:none;stroke-opacity:1" />
  </g>
  <g
     id="hover-center">
    <rect
       style="opacity:0.00100002;fill:#000000;fill-opacity:1;fill-rule:nonzero;stroke:none;stroke-width:2;stroke-linecap:round;stroke-linejoin:round;stroke-miterlimit:4;stroke-dasharray:none;stroke-opacity:1"
       y="0"
       x="22"
       height="22"
       width="22"
       id="rect4266-3" />
    <path
       d="M 29.399999,6 C 27.738,6 27,6.6716397 27,8.1 V 14 c 0,1.384149 0.738011,2 2.399999,2 h 7.2 c 1.662003,0 2.400002,-0.615852 2.400002,-2 V 8 c 0,-1.3841661 -0.738024,-2 -2.400002,-2 z m 1.923595,9.248124 -0.02059,-0.01122 0.02274,0.01891 v 0.01206 c 0,0.06076 -0.02274,-0.04419 -0.02274,-0.04419 l -0.01446,0.03171 c 0.02393,-0.0018 -0.02273,0.0123 -0.02273,0.0123 l 0.03813,-0.01206 z"
       style="fill:#fefefe;fill-opacity:0.4;stroke-width:1.50001;paint-order:stroke fill markers;enable-background:new"
       id="path1596-0-9-1-3"
       sodipodi:nodetypes="sssssssssccccccccc" />
    <path
       d="M 29.2,9 C 28.348364,9 28,9.422534 28,10.2 v 3.6 c 0,0.803973 0.430869,1.2 1.2,1.2 h 3.599999 c 0.769131,0 1.199999,-0.44906 1.199999,-1.2 v -3.6 c 0,-0.857015 -0.366338,-1.2 -1.197329,-1.2 z m 0.961794,5.548877 -0.01042,-0.0067 0.01133,0.01133 v 0.0071 c 0,0.03643 -0.01133,-0.02654 -0.01133,-0.02654 l -0.0074,0.01899 c 0.0119,-0.0012 -0.01133,0.0072 -0.01133,0.0072 l 0.01898,-0.0071 z"
       style="fill:#d3dae3;fill-opacity:1;stroke-width:1.50001;paint-order:stroke fill markers;enable-background:new"
       id="path1596-0-9-1-3-7-3-6-6"
       sodipodi:nodetypes="sssssssssccccccccc" />
  </g>
  <g
     id="g6">
    <rect
       style="opacity:0.00100002;fill:#000000;fill-opacity:1;fill-rule:nonzero;stroke:none;stroke-width:2;stroke-linecap:round;stroke-linejoin:round;stroke-miterlimit:4;stroke-dasharray:none;stroke-opacity:1"
       y="0"
       x="0"
       height="22"
       width="22"
       id="rect4266-3-3" />
    <circle
       id="path867-5-6-5-67-5"
       style="opacity:0.01;fill:#ffe680;fill-opacity:0;stroke-width:1.001;enable-background:new"
       r="9"
       cy="11"
       cx="11" />
  </g>
  <g
     id="pressed-center"
     transform="translate(44)">
    <rect
       id="rect4266-3-6"
       width="22"
       height="22"
       x="0"
       y="0"
       style="opacity:0.00100002;fill:#000000;fill-opacity:1;fill-rule:nonzero;stroke:none;stroke-width:2;stroke-linecap:round;stroke-linejoin:round;stroke-miterlimit:4;stroke-dasharray:none;stroke-opacity:1" />
    <path
       d="M 7.3999999,6 C 5.738,6 5,6.671639 5,8.1 v 5.900001 c 0,1.384149 0.7380108,2 2.3999999,2 H 14.6 c 1.662001,0 2.4,-0.615852 2.4,-2 V 8 C 17,6.615834 16.261975,6 14.6,6 Z m 1.9235931,9.248124 -0.02061,-0.01122 0.02273,0.01891 v 0.01206 c 0,0.06076 -0.02273,-0.04419 -0.02273,-0.04419 l -0.01447,0.03171 c 0.02392,-0.0018 -0.02272,0.0123 -0.02272,0.0123 l 0.03807,-0.01206 z"
       style="fill:#d3dae3;fill-opacity:1;stroke-width:1.50001;paint-order:stroke fill markers;enable-background:new"
       id="path1596-0-9-1-3-6"
       sodipodi:nodetypes="sssssssssccccccccc" />
    <path
       d="M 7.1999995,9 C 6.3483634,9 6,9.422535 6,10.200003 V 13.8 C 6,14.603974 6.4308672,15 7.1999995,15 h 3.5999975 c 0.769133,0 1.2,-0.449058 1.2,-1.2 V 10.200003 C 11.999997,9.342985 11.633657,9 10.802667,9 Z m 0.9617925,5.548877 -0.0102,-0.0067 0.011286,0.01133 v 0.0071 c 0,0.03644 -0.011286,-0.02653 -0.011286,-0.02653 l -0.0077,0.019 c 0.01188,-0.0012 -0.011286,0.0072 -0.011286,0.0072 l 0.01895,-0.0071 z"
       style="fill:#b2b2b2;fill-opacity:1;stroke-width:1.50001;paint-order:stroke fill markers;enable-background:new"
       id="path1596-0-9-1-3-7-3-6-6-2"
       sodipodi:nodetypes="sssssssssccccccccc" />
  </g>
  <g
     id="active-center">
    <rect
       style="opacity:0.00100002;fill:#000000;fill-opacity:1;fill-rule:nonzero;stroke:none;stroke-width:2;stroke-linecap:round;stroke-linejoin:round;stroke-miterlimit:4;stroke-dasharray:none;stroke-opacity:1"
       y="0"
       x="0"
       height="22"
       width="22"
       id="rect4266-3-0" />
    <path
       d="M 7.3999999,6 C 5.7379999,6 5,6.6716397 5,8.1 V 14 c 0,1.384149 0.7380107,2 2.3999999,2 H 14.600002 C 16.262002,16 17,15.384148 17,14 V 8 C 17,6.6158339 16.261977,6 14.600002,6 Z m 1.9235931,9.248124 -0.02061,-0.01122 0.02273,0.01891 v 0.01206 c 0,0.06076 -0.02273,-0.04419 -0.02273,-0.04419 l -0.01447,0.03171 c 0.02392,-0.0018 -0.02272,0.0123 -0.02272,0.0123 l 0.0381,-0.01206 z"
       style="fill:#d3dae3;fill-opacity:1;stroke-width:1.50001;paint-order:stroke fill markers;enable-background:new"
       id="path1596-0-9-1-3-3"
       sodipodi:nodetypes="sssssssssccccccccc" />
  </g>
  <g
     id="inactive-center"
     transform="translate(0,22)">
    <rect
       style="opacity:0.00100002;fill:#000000;fill-opacity:1;fill-rule:nonzero;stroke:none;stroke-width:2;stroke-linecap:round;stroke-linejoin:round;stroke-miterlimit:4;stroke-dasharray:none;stroke-opacity:1"
       y="0"
       x="0"
       height="22"
       width="22"
       id="rect4266-9" />
    <path
       d="M 7.3999995,6 C 5.7379999,6 5,6.67164 5,8.1 v 5.900001 c 0,1.384149 0.7380107,2 2.3999995,2 H 14.6 c 1.662,0 2.4,-0.615852 2.4,-2 V 8 C 17,6.615834 16.261976,6 14.6,6 Z m 1.9235925,9.248125 -0.02061,-0.01122 0.02273,0.01891 v 0.01206 c 0,0.06076 -0.02273,-0.04419 -0.02273,-0.04419 l -0.01447,0.03171 c 0.02392,-0.0018 -0.02272,0.0123 -0.02272,0.0123 l 0.0381,-0.01206 z"
       style="fill:#435b89;fill-opacity:1;stroke-width:1.50001;paint-order:stroke fill markers;enable-background:new"
       id="path1596-0-9-1-3-75-1-0"
       sodipodi:nodetypes="sssssssssccccccccc" />
  </g>
  <g
     id="deactivated-center"
     transform="translate(22,22)">
    <rect
       style="opacity:0.00100002;fill:#000000;fill-opacity:1;fill-rule:nonzero;stroke:none;stroke-width:2;stroke-linecap:round;stroke-linejoin:round;stroke-miterlimit:4;stroke-dasharray:none;stroke-opacity:1"
       y="0"
       x="0"
       height="22"
       width="22"
       id="rect4266-9-2" />
    <path
       d="M 7.3999996,6 C 5.738,6 5,6.67164 5,8.1 v 5.900001 c 0,1.384149 0.7380108,2.000001 2.3999996,2.000001 H 14.6 c 1.662,0 2.4,-0.615852 2.4,-2 V 8 C 17,6.615834 16.261976,6 14.6,6 Z m 1.9235934,9.248125 -0.02061,-0.01122 0.02273,0.01891 v 0.01206 c 0,0.06076 -0.02273,-0.04419 -0.02273,-0.04419 l -0.01447,0.03171 c 0.02392,-0.0018 -0.02272,0.0123 -0.02272,0.0123 l 0.03809,-0.01206 z"
       style="fill:#435b89;fill-opacity:0.59999996;stroke-width:1.50001;paint-order:stroke fill markers;enable-background:new"
       id="path1596-0-9-1-3-75-1-0-6"
       sodipodi:nodetypes="sssssssssccccccccc" />
  </g>
</svg>
