<?xml version="1.0" encoding="UTF-8" standalone="no"?>
<svg
   id="svg4306"
   width="22"
   height="22"
   version="1.1"
   style="enable-background:new"
   sodipodi:docname="close.svg"
   inkscape:version="1.3.2 (091e20ef0f, 2023-11-25)"
   xmlns:inkscape="http://www.inkscape.org/namespaces/inkscape"
   xmlns:sodipodi="http://sodipodi.sourceforge.net/DTD/sodipodi-0.dtd"
   xmlns="http://www.w3.org/2000/svg"
   xmlns:svg="http://www.w3.org/2000/svg"
   xmlns:rdf="http://www.w3.org/1999/02/22-rdf-syntax-ns#"
   xmlns:cc="http://creativecommons.org/ns#"
   xmlns:dc="http://purl.org/dc/elements/1.1/">
  <metadata
     id="metadata40">
    <rdf:RDF>
      <cc:Work
         rdf:about="">
        <dc:format>image/svg+xml</dc:format>
        <dc:type
           rdf:resource="http://purl.org/dc/dcmitype/StillImage" />
      </cc:Work>
    </rdf:RDF>
  </metadata>
  <defs
     id="defs38" />
  <sodipodi:namedview
     inkscape:document-rotation="0"
     pagecolor="#ffffff"
     bordercolor="#000000"
     borderopacity="1"
     objecttolerance="10"
     gridtolerance="10"
     guidetolerance="10"
     inkscape:pageopacity="0"
     inkscape:pageshadow="2"
     inkscape:window-width="1920"
     inkscape:window-height="996"
     id="namedview36"
     showgrid="false"
     inkscape:snap-bbox="true"
     inkscape:bbox-nodes="true"
     inkscape:zoom="8.040661"
     inkscape:cx="31.589443"
     inkscape:cy="26.863463"
     inkscape:window-x="0"
     inkscape:window-y="0"
     inkscape:window-maximized="1"
     inkscape:current-layer="svg4306"
     inkscape:lockguides="false"
     inkscape:showpageshadow="2"
     inkscape:pagecheckerboard="0"
     inkscape:deskcolor="#cccccc">
    <inkscape:grid
       type="xygrid"
       id="grid865"
       originx="-22"
       originy="0"
       spacingy="1"
       spacingx="1"
       units="px"
       visible="false" />
  </sodipodi:namedview>
  <style
     type="text/css"
     id="current-color-scheme">
        .ColorScheme-Text {
            color:#232629;
        }
        .ColorScheme-ButtonFocus{
            color:#3daee9;
        }
            .ColorScheme-NegativeText {
            color:#da4453;
        }
    </style>
  <g
     id="active-center"
     transform="translate(-22)">
    <rect
       style="opacity:0.00100002;fill:#050505;fill-opacity:1;stroke-width:1.001"
       id="rect953-2-2"
       width="22"
       height="22"
       x="0"
       y="0" />
    <path
       d="m 10.996311,8.9222746 2.980368,-2.9803728 c 1.359684,-1.3596948 3.447366,0.7279716 2.073933,2.087741 l -2.966658,2.9666702 2.966658,2.980366 c 1.373478,1.359689 -0.71416,3.447374 -2.073933,2.073927 L 10.996311,13.083949 8.0296253,16.050606 C 6.6699423,17.424087 4.5822678,15.336459 5.9419031,13.976679 L 8.9222707,10.996313 5.9419031,8.0296428 C 4.5822087,6.6699504 6.6698645,4.5822745 8.0296253,5.9419018 Z"
       fill-rule="evenodd"
       id="path1257"
       style="fill:#d3dae3;fill-opacity:1;stroke-width:0.0188852" />
  </g>
  <g
     id="hover-center">
    <rect
       style="opacity:0.00100002;fill:#050505;fill-opacity:1;stroke-width:1.001"
       id="rect953-2-7-2"
       width="22"
       height="22"
       x="0"
       y="0" />
    <path
       d="m 10.996307,8.9222737 2.980372,-2.980372 c 1.359683,-1.3596945 3.44736,0.7279712 2.073932,2.0877406 l -2.966661,2.9666697 2.966661,2.980366 c 1.373477,1.359689 -0.714162,3.447368 -2.073932,2.073929 L 10.996307,13.083949 8.0296233,16.050607 C 6.669942,17.424088 4.5822677,15.336455 5.9419027,13.976678 L 8.9222688,10.996312 5.9419027,8.0296423 C 4.5822093,6.6699499 6.6698639,4.5822754 8.0296233,5.9419017 Z"
       fill-rule="evenodd"
       id="path1257-6"
       style="fill:#c83771;fill-opacity:1;stroke-width:0.0188852;enable-background:new" />
  </g>
  <g
     id="pressed-center"
     transform="translate(22)">
    <rect
       style="opacity:0.00100002;fill:#050505;fill-opacity:1;stroke-width:1.001"
       id="rect953-2-7-6"
       width="22"
       height="22"
       x="0"
       y="0" />
    <path
       d="M 10.996307,8.9222739 13.976679,5.9419017 C 15.336362,4.5822071 17.42404,6.669873 16.05061,8.0296425 l -2.966659,2.9666715 2.966659,2.980365 c 1.373477,1.359689 -0.714162,3.44737 -2.073931,2.073928 L 10.996307,13.083949 8.0296236,16.050607 C 6.6699421,17.424087 4.5822677,15.336456 5.9419028,13.976679 L 8.922269,10.996314 5.9419028,8.0296425 C 4.5822091,6.66995 6.6698641,4.5822751 8.0296236,5.9419017 Z"
       fill-rule="evenodd"
       id="path1257-6-7"
       style="fill:#d35f8d;fill-opacity:1;stroke-width:0.0188852;enable-background:new" />
  </g>
  <g
     id="inactive-center"
     transform="matrix(1,0,0,-1,44,22)">
    <rect
       style="opacity:0.00100002;fill:#050505;fill-opacity:1;stroke-width:1.001"
       id="rect953-2"
       width="22"
       height="22"
       x="0"
       y="0" />
    <path
       d="m 10.996309,8.9222758 2.980372,-2.9803726 c 1.359684,-1.3596948 3.447363,0.7279714 2.073932,2.0877409 l -2.966662,2.9666679 2.966662,2.980366 c 1.373478,1.35969 -0.714162,3.447371 -2.073932,2.073929 L 10.996309,13.083948 8.0296249,16.050607 C 6.6699424,17.424087 4.5822681,15.336458 5.941903,13.976678 L 8.9222706,10.996312 5.941903,8.0296441 C 4.5822088,6.6699516 6.6698644,4.5822754 8.0296249,5.9419032 Z"
       fill-rule="evenodd"
       id="path1257-7"
       style="fill:#435b89;fill-opacity:1;stroke-width:0.0188852;enable-background:new" />
  </g>
  <g
     id="deactivated-center"
     transform="translate(66)">
    <rect
       style="opacity:0.00100002;fill:#050505;fill-opacity:1;stroke-width:1.001"
       id="rect953-2-3"
       width="22"
       height="22"
       x="0"
       y="-22"
       transform="scale(1,-1)" />
    <path
       d="m 10.996309,13.077727 2.98037,2.98037 c 1.359686,1.359697 3.447363,-0.727972 2.073932,-2.08774 l -2.96666,-2.966668 2.96666,-2.9803669 C 17.424088,6.6636326 15.336451,4.5759522 13.976679,5.9493926 L 10.996309,8.9160515 8.0296248,5.9493926 C 6.6699424,4.5759128 4.5822681,6.6635436 5.941903,8.0233221 L 8.9222703,11.003689 5.941903,13.970357 c -1.3596941,1.359694 0.7279614,3.44737 2.0877218,2.08774 z"
       fill-rule="evenodd"
       id="path1257-7-6"
       style="fill:#435b89;fill-opacity:0.6;stroke-width:0.0188852;enable-background:new" />
  </g>
</svg>
