<?xml version="1.0" encoding="UTF-8" standalone="no"?>
<svg
   id="svg4306"
   width="22"
   height="22"
   version="1.1"
   style="enable-background:new"
   sodipodi:docname="maximize.svg"
   inkscape:version="1.3.2 (091e20ef0f, 2023-11-25)"
   xmlns:inkscape="http://www.inkscape.org/namespaces/inkscape"
   xmlns:sodipodi="http://sodipodi.sourceforge.net/DTD/sodipodi-0.dtd"
   xmlns="http://www.w3.org/2000/svg"
   xmlns:svg="http://www.w3.org/2000/svg"
   xmlns:rdf="http://www.w3.org/1999/02/22-rdf-syntax-ns#"
   xmlns:cc="http://creativecommons.org/ns#"
   xmlns:dc="http://purl.org/dc/elements/1.1/">
  <metadata
     id="metadata28">
    <rdf:RDF>
      <cc:Work
         rdf:about="">
        <dc:format>image/svg+xml</dc:format>
        <dc:type
           rdf:resource="http://purl.org/dc/dcmitype/StillImage" />
      </cc:Work>
    </rdf:RDF>
  </metadata>
  <defs
     id="defs26" />
  <sodipodi:namedview
     inkscape:document-rotation="0"
     pagecolor="#ffffff"
     bordercolor="#666666"
     borderopacity="1"
     objecttolerance="10"
     gridtolerance="10"
     guidetolerance="10"
     inkscape:pageopacity="0"
     inkscape:pageshadow="2"
     inkscape:window-width="1920"
     inkscape:window-height="996"
     id="namedview24"
     showgrid="false"
     inkscape:zoom="5.6568546"
     inkscape:cx="24.041629"
     inkscape:cy="40.835414"
     inkscape:window-x="0"
     inkscape:window-y="0"
     inkscape:window-maximized="1"
     inkscape:current-layer="svg4306"
     inkscape:snap-bbox="true"
     inkscape:bbox-nodes="true"
     inkscape:lockguides="false"
     inkscape:showpageshadow="2"
     inkscape:pagecheckerboard="0"
     inkscape:deskcolor="#d1d1d1">
    <inkscape:grid
       type="xygrid"
       id="grid853"
       originx="-22"
       originy="0"
       spacingy="1"
       spacingx="1"
       units="px"
       visible="false" />
  </sodipodi:namedview>
  <style
     type="text/css"
     id="current-color-scheme" />
  <g
     id="active-center"
     transform="translate(-22)">
    <rect
       id="rect4266"
       width="22"
       height="22"
       x="0"
       y="0"
       style="opacity:0.00100002;fill:#f0f3f6;fill-opacity:0.67;fill-rule:nonzero;stroke:none;stroke-width:2;stroke-linecap:round;stroke-linejoin:round;stroke-miterlimit:4;stroke-dasharray:none;stroke-opacity:1" />
    <path
       d="M 10.62094,7.1478504 3.153896,14.145273 c -0.15149,0.143735 -0.195753,0.358799 -0.112171,0.545022 0.08188,0.186573 0.275424,0.308726 0.490693,0.309701 h 4.800277 v 0 h 4.667313 v 0 h 5.466664 c 0.21527,-9.75e-4 0.40881,-0.123128 0.490693,-0.309702 0.02982,-0.05938 0.04437,-0.124488 0.04248,-0.190092 8.59e-4,-0.132862 -0.05476,-0.260576 -0.154584,-0.35493 L 11.378143,7.1478504 c -0.208639,-0.1971339 -0.548739,-0.1971339 -0.757378,0 z"
       id="path4-3-3"
       style="color:#eceff4;fill:#d3dae3;fill-opacity:1;stroke-width:0.44715;enable-background:new"
       class="ColorScheme-Text"
       sodipodi:nodetypes="ccccccccccccccc"
       inkscape:transform-center-x="1.7677669"
       inkscape:transform-center-y="0.88388395" />
  </g>
  <g
     id="pressed-center"
     transform="translate(22)">
    <rect
       id="rect4266-3-6"
       width="22"
       height="22"
       x="0"
       y="0"
       style="opacity:0.00100002;fill:#000000;fill-opacity:1;fill-rule:nonzero;stroke:none;stroke-width:2;stroke-linecap:round;stroke-linejoin:round;stroke-miterlimit:4;stroke-dasharray:none;stroke-opacity:1" />
    <path
       d="M 10.62094,7.1478504 3.153896,14.145273 c -0.15149,0.143735 -0.195753,0.358799 -0.112171,0.545022 0.08188,0.186573 0.275424,0.308726 0.490693,0.309701 h 4.800277 v 0 h 4.667313 v 0 h 5.466664 c 0.21527,-9.75e-4 0.40881,-0.123128 0.490693,-0.309702 0.02982,-0.05938 0.04437,-0.124488 0.04248,-0.190092 8.59e-4,-0.132862 -0.05476,-0.260576 -0.154584,-0.35493 L 11.378143,7.1478504 c -0.208639,-0.1971339 -0.548739,-0.1971339 -0.757378,0 z"
       id="path4-3-3-3"
       style="color:#eceff4;fill:#00cccc;fill-opacity:1;stroke-width:0.44715;enable-background:new"
       class="ColorScheme-Text"
       sodipodi:nodetypes="ccccccccccccccc"
       inkscape:transform-center-x="1.7677669"
       inkscape:transform-center-y="0.88388395" />
  </g>
  <g
     id="inactive-center"
     transform="translate(44)">
    <rect
       id="rect4266-2"
       width="22"
       height="22"
       x="0"
       y="0"
       style="opacity:0.00100002;fill:#ffffff;fill-opacity:1;fill-rule:nonzero;stroke:none;stroke-width:2;stroke-linecap:round;stroke-linejoin:round;stroke-miterlimit:4;stroke-dasharray:none;stroke-opacity:1" />
    <path
       d="M 10.62094,7.1478504 3.153896,14.145273 c -0.15149,0.143735 -0.195753,0.358799 -0.112171,0.545022 0.08188,0.186573 0.275424,0.308726 0.490693,0.309701 h 4.800277 v 0 h 4.667313 v 0 h 5.466664 c 0.21527,-9.75e-4 0.40881,-0.123128 0.490693,-0.309702 0.02982,-0.05938 0.04437,-0.124488 0.04248,-0.190092 8.59e-4,-0.132862 -0.05476,-0.260576 -0.154584,-0.35493 L 11.378143,7.1478504 c -0.208639,-0.1971339 -0.548739,-0.1971339 -0.757378,0 z"
       id="path4-3-3-6"
       style="color:#eceff4;fill:#455a87;fill-opacity:1;stroke-width:0.44715;enable-background:new"
       class="ColorScheme-Text"
       sodipodi:nodetypes="ccccccccccccccc"
       inkscape:transform-center-x="1.7677669"
       inkscape:transform-center-y="0.88388395" />
  </g>
  <g
     id="hover-center">
    <rect
       id="rect4266-91"
       width="22"
       height="22"
       x="0"
       y="0"
       style="opacity:0.00100002;fill:#ffffff;fill-opacity:1;fill-rule:nonzero;stroke:none;stroke-width:2;stroke-linecap:round;stroke-linejoin:round;stroke-miterlimit:4;stroke-dasharray:none;stroke-opacity:1" />
    <path
       d="M 10.62094,7.1478504 3.153896,14.145273 c -0.15149,0.143735 -0.195753,0.358799 -0.112171,0.545022 0.08188,0.186573 0.275424,0.308726 0.490693,0.309701 h 4.800277 v 0 h 4.667313 v 0 h 5.466664 c 0.21527,-9.75e-4 0.40881,-0.123128 0.490693,-0.309702 0.02982,-0.05938 0.04437,-0.124488 0.04248,-0.190092 8.59e-4,-0.132862 -0.05476,-0.260576 -0.154584,-0.35493 L 11.378143,7.1478504 c -0.208639,-0.1971339 -0.548739,-0.1971339 -0.757378,0 z"
       id="path4-3-3-6-7"
       style="color:#eceff4;fill:#009999;fill-opacity:1;stroke-width:0.44715;enable-background:new"
       class="ColorScheme-Text"
       sodipodi:nodetypes="ccccccccccccccc"
       inkscape:transform-center-x="1.7677669"
       inkscape:transform-center-y="0.88388395" />
  </g>
  <g
     id="deactivated-center"
     transform="translate(66)">
    <rect
       id="rect4266-2-3"
       width="22"
       height="22"
       x="0"
       y="0"
       style="opacity:0.00100002;fill:#ffffff;fill-opacity:1;fill-rule:nonzero;stroke:none;stroke-width:2;stroke-linecap:round;stroke-linejoin:round;stroke-miterlimit:4;stroke-dasharray:none;stroke-opacity:1" />
    <path
       d="M 10.620933,7.1478505 3.1538864,14.145273 c -0.15149,0.143735 -0.195753,0.358799 -0.112171,0.545022 0.08188,0.186573 0.275424,0.308726 0.490693,0.309701 h 4.800277 v 0 h 4.6673076 v 0 h 5.46667 c 0.21527,-9.75e-4 0.40881,-0.123128 0.49069,-0.309702 0.0298,-0.05938 0.0444,-0.124488 0.0425,-0.190092 8.6e-4,-0.132862 -0.0548,-0.260576 -0.15458,-0.35493 l -7.46712,-6.9974216 c -0.20864,-0.1971339 -0.54874,-0.1971339 -0.75738,0 z"
       id="path4-3-3-6-7-5"
       style="color:#eceff4;fill:#455a87;fill-opacity:0.6;stroke-width:0.44715;enable-background:new"
       class="ColorScheme-Text"
       sodipodi:nodetypes="ccccccccccccccc"
       inkscape:transform-center-x="1.7677669"
       inkscape:transform-center-y="0.88388395" />
  </g>
</svg>
