<?xml version="1.0" encoding="UTF-8" standalone="no"?>
<svg
   id="svg4306"
   width="22"
   height="22"
   version="1.1"
   style="enable-background:new"
   sodipodi:docname="minimize.svg"
   inkscape:version="1.3.2 (091e20ef0f, 2023-11-25)"
   xmlns:inkscape="http://www.inkscape.org/namespaces/inkscape"
   xmlns:sodipodi="http://sodipodi.sourceforge.net/DTD/sodipodi-0.dtd"
   xmlns="http://www.w3.org/2000/svg"
   xmlns:svg="http://www.w3.org/2000/svg"
   xmlns:rdf="http://www.w3.org/1999/02/22-rdf-syntax-ns#"
   xmlns:cc="http://creativecommons.org/ns#"
   xmlns:dc="http://purl.org/dc/elements/1.1/">
  <metadata
     id="metadata28">
    <rdf:RDF>
      <cc:Work
         rdf:about="">
        <dc:format>image/svg+xml</dc:format>
        <dc:type
           rdf:resource="http://purl.org/dc/dcmitype/StillImage" />
      </cc:Work>
    </rdf:RDF>
  </metadata>
  <defs
     id="defs26" />
  <sodipodi:namedview
     inkscape:document-rotation="0"
     pagecolor="#ffffff"
     bordercolor="#666666"
     borderopacity="1"
     objecttolerance="10"
     gridtolerance="10"
     guidetolerance="10"
     inkscape:pageopacity="0"
     inkscape:pageshadow="2"
     inkscape:window-width="1920"
     inkscape:window-height="996"
     id="namedview24"
     showgrid="false"
     inkscape:zoom="5.6568539"
     inkscape:cx="29.52171"
     inkscape:cy="30.05204"
     inkscape:window-x="0"
     inkscape:window-y="0"
     inkscape:window-maximized="1"
     inkscape:current-layer="svg4306"
     inkscape:snap-bbox="true"
     inkscape:bbox-nodes="true"
     inkscape:lockguides="false"
     inkscape:showpageshadow="2"
     inkscape:pagecheckerboard="0"
     inkscape:deskcolor="#d1d1d1">
    <inkscape:grid
       type="xygrid"
       id="grid853"
       originx="-22"
       originy="0"
       spacingy="1"
       spacingx="1"
       units="px"
       visible="false" />
  </sodipodi:namedview>
  <style
     type="text/css"
     id="current-color-scheme" />
  <g
     id="active-center"
     transform="translate(-22)">
    <rect
       id="rect4266"
       width="22"
       height="22"
       x="0"
       y="0"
       style="opacity:0.00100002;fill:#000000;fill-opacity:1;fill-rule:nonzero;stroke:none;stroke-width:2;stroke-linecap:round;stroke-linejoin:round;stroke-miterlimit:4;stroke-dasharray:none;stroke-opacity:1" />
    <path
       d="M 11.379052,14.852146 18.846096,7.854723 C 18.997586,7.710988 19.041849,7.495924 18.958267,7.309701 18.876387,7.123128 18.682843,7.000975 18.467574,7 H 13.667297 V 7 H 8.9999838 v 0 h -5.466664 c -0.21527,9.75e-4 -0.40881,0.123128 -0.490693,0.309702 -0.02982,0.05938 -0.04437,0.124488 -0.04248,0.190092 -8.59e-4,0.132862 0.05476,0.260576 0.154584,0.35493 l 7.4671182,6.997422 c 0.208639,0.197134 0.548739,0.197134 0.757378,0 z"
       id="path4-3-3"
       style="color:#eceff4;fill:#d3dae3;fill-opacity:1;stroke-width:0.44715;enable-background:new"
       class="ColorScheme-Text"
       sodipodi:nodetypes="ccccccccccccccc"
       inkscape:transform-center-x="-1.7677671"
       inkscape:transform-center-y="-0.88388353" />
  </g>
  <g
     id="pressed-center"
     transform="translate(22)">
    <rect
       id="rect4266-3-6"
       width="22"
       height="22"
       x="0"
       y="0"
       style="opacity:0.00100002;fill:#000000;fill-opacity:1;fill-rule:nonzero;stroke:none;stroke-width:2;stroke-linecap:round;stroke-linejoin:round;stroke-miterlimit:4;stroke-dasharray:none;stroke-opacity:1" />
    <path
       d="m 11.37906,14.852148 7.467044,-6.9974233 c 0.15149,-0.143735 0.195753,-0.358799 0.112171,-0.545022 -0.08188,-0.1865729 -0.275424,-0.308726 -0.490693,-0.309701 h -4.800277 v 0 H 8.999992 v 0 H 3.533328 c -0.21527,9.75e-4 -0.40881,0.1231281 -0.490693,0.3097021 -0.02982,0.05938 -0.04437,0.1244879 -0.04248,0.190092 -8.59e-4,0.1328619 0.05476,0.260576 0.154584,0.3549299 l 7.467118,6.9974223 c 0.208639,0.197134 0.548739,0.197134 0.757378,0 z"
       id="path4-3-3-3"
       style="color:#eceff4;fill:#ffe580;fill-opacity:1;stroke-width:0.44715;enable-background:new"
       class="ColorScheme-Text"
       sodipodi:nodetypes="ccccccccccccccc"
       inkscape:transform-center-x="-1.7677671"
       inkscape:transform-center-y="-0.88388353" />
  </g>
  <g
     id="hover-center">
    <rect
       style="opacity:0.00100002;fill:#000000;fill-opacity:1;fill-rule:nonzero;stroke:none;stroke-width:2;stroke-linecap:round;stroke-linejoin:round;stroke-miterlimit:4;stroke-dasharray:none;stroke-opacity:1"
       y="0"
       x="0"
       height="22"
       width="22"
       id="rect4266-3" />
    <path
       d="m 11.37906,14.852148 7.467044,-6.9974232 c 0.15149,-0.143735 0.195753,-0.358799 0.112171,-0.545022 -0.08188,-0.186573 -0.275424,-0.308726 -0.490693,-0.309701 h -4.800277 v 0 H 8.999992 v 0 H 3.533328 c -0.21527,9.75e-4 -0.40881,0.123128 -0.490693,0.309702 -0.02982,0.05938 -0.04437,0.124488 -0.04248,0.190092 -8.59e-4,0.132862 0.05476,0.260576 0.154584,0.35493 l 7.467118,6.9974222 c 0.208639,0.197134 0.548739,0.197134 0.757378,0 z"
       id="path4-3-3-6"
       style="color:#eceff4;fill:#e5b800;fill-opacity:1;stroke-width:0.44715;enable-background:new"
       class="ColorScheme-Text"
       sodipodi:nodetypes="ccccccccccccccc"
       inkscape:transform-center-x="-1.7677671"
       inkscape:transform-center-y="-0.88388353" />
  </g>
  <g
     id="inactive-center"
     transform="translate(44)">
    <rect
       id="rect4266-3-6-9"
       width="22"
       height="22"
       x="0"
       y="0"
       style="opacity:0.00100002;fill:#000000;fill-opacity:1;fill-rule:nonzero;stroke:none;stroke-width:2;stroke-linecap:round;stroke-linejoin:round;stroke-miterlimit:4;stroke-dasharray:none;stroke-opacity:1" />
    <path
       d="m 11.37906,14.852148 7.467044,-6.9974233 c 0.15149,-0.143735 0.195753,-0.358799 0.112171,-0.545022 -0.08188,-0.186573 -0.275424,-0.308726 -0.490693,-0.309701 h -4.800277 v 0 H 8.999992 v 0 H 3.533328 c -0.21527,9.75e-4 -0.40881,0.123128 -0.490693,0.309702 -0.02982,0.05938 -0.04437,0.124488 -0.04248,0.190092 -8.59e-4,0.132862 0.05476,0.260576 0.154584,0.35493 l 7.467118,6.9974223 c 0.208639,0.197134 0.548739,0.197134 0.757378,0 z"
       id="path4-3-3-7"
       style="color:#eceff4;fill:#455a87;fill-opacity:1;stroke-width:0.44715;enable-background:new"
       class="ColorScheme-Text"
       sodipodi:nodetypes="ccccccccccccccc"
       inkscape:transform-center-x="-1.7677671"
       inkscape:transform-center-y="-0.88388353" />
  </g>
  <g
     id="deactivated-center"
     transform="translate(66)">
    <rect
       id="rect4266-3-6-9-4"
       width="22"
       height="22"
       x="0"
       y="0"
       style="opacity:0.00100002;fill:#000000;fill-opacity:1;fill-rule:nonzero;stroke:none;stroke-width:2;stroke-linecap:round;stroke-linejoin:round;stroke-miterlimit:4;stroke-dasharray:none;stroke-opacity:1" />
    <path
       d="m 11.379061,14.852148 7.46704,-6.9974233 c 0.15149,-0.143735 0.19576,-0.358799 0.11217,-0.545022 -0.0819,-0.1865729 -0.27542,-0.308726 -0.49069,-0.309701 h -4.80028 v 0 H 8.9999906 v 0 h -5.466662 c -0.21527,9.75e-4 -0.40881,0.1231281 -0.490693,0.3097021 -0.02982,0.05938 -0.04437,0.1244879 -0.04248,0.190092 -8.59e-4,0.1328619 0.05476,0.260576 0.154584,0.3549299 l 7.4671214,6.9974223 c 0.20864,0.197134 0.54874,0.197134 0.75737,0 z"
       id="path4-3-3-5"
       style="color:#eceff4;fill:#455a87;fill-opacity:0.6;stroke-width:0.44715;enable-background:new"
       class="ColorScheme-Text"
       sodipodi:nodetypes="ccccccccccccccc"
       inkscape:transform-center-x="-1.7677671"
       inkscape:transform-center-y="-0.88388353" />
  </g>
</svg>
