<?xml version="1.0" encoding="UTF-8" standalone="no"?>
<svg
   id="svg2"
   width="384"
   height="384"
   version="1.1"
   sodipodi:docname="Logo.svg"
   inkscape:version="1.3.2 (091e20ef0f, 2023-11-25)"
   xmlns:inkscape="http://www.inkscape.org/namespaces/inkscape"
   xmlns:sodipodi="http://sodipodi.sourceforge.net/DTD/sodipodi-0.dtd"
   xmlns:xlink="http://www.w3.org/1999/xlink"
   xmlns="http://www.w3.org/2000/svg"
   xmlns:svg="http://www.w3.org/2000/svg">
  <defs
     id="defs1">
    <linearGradient
       inkscape:collect="always"
       id="linearGradient846">
      <stop
         style="stop-color:#cce1ff;stop-opacity:1;"
         offset="0"
         id="stop842" />
      <stop
         style="stop-color:#cde1ff;stop-opacity:1;"
         offset="0.35648859"
         id="stop1" />
      <stop
         style="stop-color:#68a5ff;stop-opacity:1;"
         offset="1"
         id="stop844" />
    </linearGradient>
    <radialGradient
       inkscape:collect="always"
       xlink:href="#linearGradient846"
       id="radialGradient1"
       cx="192"
       cy="192"
       fx="192"
       fy="192"
       r="79.140747"
       gradientTransform="matrix(-0.56860722,-0.56249983,0.56249987,-0.56860723,193.1726,409.17256)"
       gradientUnits="userSpaceOnUse" />
  </defs>
  <sodipodi:namedview
     id="namedview1"
     pagecolor="#02334b"
     bordercolor="#000000"
     borderopacity="1"
     inkscape:showpageshadow="2"
     inkscape:pageopacity="0.0"
     inkscape:pagecheckerboard="true"
     inkscape:deskcolor="#02334b"
     inkscape:zoom="1.0037739"
     inkscape:cx="204.22926"
     inkscape:cy="292.39652"
     inkscape:window-width="1920"
     inkscape:window-height="1003"
     inkscape:window-x="0"
     inkscape:window-y="0"
     inkscape:window-maximized="1"
     inkscape:current-layer="svg2"
     showgrid="false">
    <inkscape:grid
       id="grid1"
       units="px"
       originx="0"
       originy="0"
       spacingx="1"
       spacingy="1"
       empcolor="#0099e5"
       empopacity="0.30196078"
       color="#0099e5"
       opacity="0.14901961"
       empspacing="5"
       dotted="false"
       gridanglex="30"
       gridanglez="30"
       visible="false" />
  </sodipodi:namedview>
  <path
     id="path20"
     style="color:#31363b;fill:url(#radialGradient1);fill-opacity:1;stroke-width:1"
     d="m 169.74166,147.96666 c -3.07323,0 -5.56458,2.49134 -5.56458,5.56458 0,3.07325 2.49135,5.5646 5.56458,5.5646 3.07326,0 5.56459,-2.49135 5.56459,-5.5646 0,-3.07324 -2.49132,-5.56458 -5.56459,-5.56458 z m 38.95208,0 c -6.78197,-3.76429 -14.824,4.20809 -11.12916,11.12918 l 16.69374,16.69374 -16.69374,16.69375 c -4.58436,7.65667 4.48617,14.99874 11.12916,11.12916 l 27.82293,-27.82291 z m -51.9361,33.3875 c -5.12205,0 -9.27431,4.15225 -9.27431,9.2743 0,5.12205 4.15226,9.2743 9.27431,9.2743 5.12204,0 9.2743,-4.15225 9.2743,-9.2743 0,-5.12205 -4.15226,-9.2743 -9.2743,-9.2743 z m 24.11318,33.3875 c -6.14644,0 -11.12916,4.9827 -11.12916,11.12916 0,6.14646 4.98272,11.12918 11.12916,11.12918 C 187.01728,237 192,232.01728 192,225.87082 c 0,-6.14646 -4.98272,-11.12916 -11.12918,-11.12916 z"
     class="ColorScheme-Text"
     sodipodi:nodetypes="ssssscccccccssssssssss" />
</svg>
