<?xml version="1.0" encoding="UTF-8" standalone="no"?>
<svg
   id="svg3287"
   version="1.1"
   inkscape:version="1.3.2 (091e20ef0f, 2023-11-25)"
   width="22"
   height="22"
   sodipodi:docname="knotes.svg"
   viewBox="0 0 22 22"
   xmlns:inkscape="http://www.inkscape.org/namespaces/inkscape"
   xmlns:sodipodi="http://sodipodi.sourceforge.net/DTD/sodipodi-0.dtd"
   xmlns="http://www.w3.org/2000/svg"
   xmlns:svg="http://www.w3.org/2000/svg"
   xmlns:rdf="http://www.w3.org/1999/02/22-rdf-syntax-ns#"
   xmlns:cc="http://creativecommons.org/ns#"
   xmlns:dc="http://purl.org/dc/elements/1.1/">
  <metadata
     id="metadata4159">
    <rdf:RDF>
      <cc:Work
         rdf:about="">
        <dc:format>image/svg+xml</dc:format>
        <dc:type
           rdf:resource="http://purl.org/dc/dcmitype/StillImage" />
      </cc:Work>
    </rdf:RDF>
  </metadata>
  <defs
     id="defs3287">
    <style
       type="text/css"
       id="current-color-scheme" />
    <linearGradient
       id="oomox"
       x1="33"
       x2="33"
       y1="81"
       y2="95"
       gradientUnits="userSpaceOnUse">
      <stop
         offset="0%"
         style="stop-color:#303b3d; stop-opacity:1"
         id="stop18" />
      <stop
         offset="100%"
         style="stop-color:#bc985d; stop-opacity:1"
         id="stop20" />
    </linearGradient>
  </defs>
  <sodipodi:namedview
     pagecolor="#280b17"
     bordercolor="#000000"
     borderopacity="1"
     objecttolerance="10"
     gridtolerance="10000"
     guidetolerance="10"
     inkscape:pageopacity="0"
     inkscape:pageshadow="2"
     inkscape:window-width="1920"
     inkscape:window-height="996"
     id="namedview4155"
     inkscape:document-units="px"
     showgrid="true"
     inkscape:showpageshadow="true"
     borderlayer="true"
     inkscape:zoom="8.0815284"
     inkscape:cx="-1.3611287"
     inkscape:cy="7.0531213"
     inkscape:window-x="0"
     inkscape:window-y="0"
     inkscape:window-maximized="1"
     inkscape:current-layer="svg3287"
     fit-margin-top="0"
     fit-margin-left="0"
     fit-margin-right="0"
     fit-margin-bottom="0"
     inkscape:snap-bbox="true"
     inkscape:bbox-nodes="true"
     inkscape:document-rotation="0"
     showguides="false"
     inkscape:lockguides="false"
     inkscape:pagecheckerboard="true"
     inkscape:deskcolor="#280b17">
    <sodipodi:guide
       position="-29.999853,29.999999"
       orientation="28,0"
       id="guide4186"
       inkscape:locked="false" />
    <sodipodi:guide
       position="-29.999853,1.999999"
       orientation="0,28.000004"
       id="guide4188"
       inkscape:locked="false" />
    <sodipodi:guide
       position="-1.9998492,1.999999"
       orientation="-28,0"
       id="guide4190"
       inkscape:locked="false" />
    <sodipodi:guide
       position="-1.9998492,29.999999"
       orientation="0,-28.000004"
       id="guide4192"
       inkscape:locked="false" />
    <sodipodi:guide
       position="-31.999853,31.999999"
       orientation="32,0"
       id="guide4194"
       inkscape:locked="false" />
    <sodipodi:guide
       position="-31.999853,-9.7104645e-07"
       orientation="0,32.000004"
       id="guide4196"
       inkscape:locked="false" />
    <sodipodi:guide
       position="0.00015077319,-9.7104645e-07"
       orientation="-32,0"
       id="guide4198"
       inkscape:locked="false" />
    <sodipodi:guide
       position="0.00015077319,31.999999"
       orientation="0,-32.000004"
       id="guide4200"
       inkscape:locked="false" />
    <inkscape:grid
       id="grid1"
       units="px"
       originx="-31.999853"
       originy="-10"
       spacingx="1"
       spacingy="1"
       empcolor="#0099e5"
       empopacity="0.30196078"
       color="#0099e5"
       opacity="0.14901961"
       empspacing="5"
       dotted="false"
       gridanglex="30"
       gridanglez="30"
       visible="true" />
  </sodipodi:namedview>
  <inkscape:clipboard
     style="opacity:0.01000001;fill:#00000f;fill-opacity:0;stroke-width:1;stroke-linecap:butt;stroke-linejoin:miter;stroke-miterlimit:4;stroke-dasharray:none;stroke-dashoffset:0;stroke-opacity:1;stroke:none"
     min="0,0"
     max="22,22" />
  <g
     id="22-22-knotes">
    <rect
       style="fill:none;fill-opacity:1;stroke:none;stroke-width:0.1;stroke-linecap:square;stroke-linejoin:miter;stroke-miterlimit:4;stroke-dasharray:none;stroke-dashoffset:0;stroke-opacity:1"
       id="rect4148"
       width="22"
       height="22"
       x="1.3415527e-07"
       y="0" />
    <path
       d="m 15.173909,9.666668 c 0,0 0.192093,-1.7e-5 0,0 H 9.6087001 c -0.463459,-3.11e-4 -0.463459,-0.666975 0,-0.666664 h 5.5652089 v 0 c 0.492755,-4e-6 0.492755,0.66666 0,0.666664 z m 0,2.666668 H 9.6087001 c -0.463459,3.11e-4 -0.463459,0.666975 0,0.666664 h 5.5652089 c 0.463453,-3.11e-4 0.463453,-0.666978 0,-0.666664 z M 19,4.043481 V 17.956519 C 18.999336,18.532551 18.532551,18.999336 17.956519,19 H 4.0434798 C 3.4674533,18.999336 3.0006587,18.532551 3,17.956519 V 4.043481 C 3.0006587,3.467449 3.4674533,3.000665 4.0434798,3 H 17.956519 C 18.532551,3.000665 18.999336,3.467449 19,4.043481 Z M 5.0001469,18 H 7 L 7.0001469,4 h -2 c -1,0 -1,0 -1,1 v 12 c 0,1 0,1 1,1 z M 18.000147,5 c 0,-1 0,-1 -1,-1 H 8.0001469 v 14 h 9.0000001 c 1,0 1,0 1,-1 z"
       id="path1-5"
       style="fill:#d3dae3;fill-opacity:1;stroke-width:0.08696"
       sodipodi:nodetypes="ccccccccccccccccccccccccccccccccccc" />
    <path
       d="M 5.5499405,7.0004113 C 5.1364106,7.0004113 4.8,7.4122448 4.8,7.9184131 v 0.7531227 0.589137 3.8939852 c 0,0.0175 0.00327,0.03399 0.00877,0.04911 1.942e-4,0.0011 1.068e-4,0.0019 3.268e-4,0.0021 L 5.4600272,14.92966 C 5.4762282,14.9725 5.5113012,15 5.5498972,15 c 0.038616,0 0.073689,-0.02753 0.089868,-0.07035 l 0.3346471,-0.886328 c 2.721e-4,-0.0013 0.001,-0.0018 0.00127,-0.0021 2.159e-4,-0.0011 1.37e-4,-0.0018 3.445e-4,-0.0021 l 0.314895,-0.833963 c 2.158e-4,-0.0011 1.141e-4,-0.0019 3.249e-4,-0.0022 0.00554,-0.01496 0.00876,-0.03156 0.00876,-0.04911 V 9.2602601 8.6711251 7.9180031 C 6.2999045,7.4118332 5.9634916,7 5.5500169,7 Z m -8.07e-5,5.9994237 v 0 -3.4996628 0 z m 0.2852333,0.834548 c -0.1832558,-0.07459 -0.3889046,-0.07411 -0.5703177,5.7e-5 L 5.0538387,13.275857 h 0.99216 z M 5.5498598,12.999835 v -3.4996628 0 z M 6.1018127,9.1427073 h -1.103804 v 0 z M 5.5499405,14.589595 5.3487974,14.056944 c 0.1287462,-0.04705 0.2719376,-0.04742 0.4022525,3e-5 z M 6.1018127,8.500271 H 4.9980087 V 7.9184131 c 0,-0.3725412 0.2476137,-0.6756019 0.5519318,-0.6756019 0.3043163,0 0.5518722,0.3030607 0.5518722,0.6756019 z"
       id="path12-5-3-8"
       style="color:#eff0f1;fill:#d3dae3;fill-opacity:1;stroke-width:0.10955"
       sodipodi:nodetypes="csccscccsccccccsccsccccccccccccccccccccccccssccss"
       class="ColorScheme-Text" />
  </g>
</svg>
