<?xml version="1.0" encoding="UTF-8" standalone="no"?>
<svg
   viewBox="0 0 22 22"
   version="1.1"
   id="svg1"
   sodipodi:docname="search.svg"
   inkscape:version="1.3.2 (091e20ef0f, 2023-11-25)"
   width="22"
   height="22"
   xmlns:inkscape="http://www.inkscape.org/namespaces/inkscape"
   xmlns:sodipodi="http://sodipodi.sourceforge.net/DTD/sodipodi-0.dtd"
   xmlns="http://www.w3.org/2000/svg"
   xmlns:svg="http://www.w3.org/2000/svg">
  <sodipodi:namedview
     id="namedview1"
     pagecolor="#ffffff"
     bordercolor="#000000"
     borderopacity="0.25"
     inkscape:showpageshadow="2"
     inkscape:pageopacity="0.0"
     inkscape:pagecheckerboard="0"
     inkscape:deskcolor="#d1d1d1"
     inkscape:zoom="16.948466"
     inkscape:cx="4.838196"
     inkscape:cy="3.7171506"
     inkscape:window-width="1920"
     inkscape:window-height="996"
     inkscape:window-x="0"
     inkscape:window-y="0"
     inkscape:window-maximized="1"
     inkscape:current-layer="svg1" />
  <defs
     id="defs1">
    <style
       type="text/css"
       id="style1">.ColorScheme-Text {
        color:#d8dee9;
      }</style>
  </defs>
  <path
     d="m 12.975656,4.00004 c -2.774855,2.73e-4 -5.0237236,2.249021 -5.0239946,5.023687 1.1e-4,1.222867 0.437821,2.342809 1.164,3.213897 l -1.030638,1.030584 c -0.0044,0.004 -0.0056,0.0088 -0.0083,0.01294 -0.508644,-0.240487 -1.131484,-0.163487 -1.551091,0.256046 l -2.124882,2.123921 c -0.5343339,0.534322 -0.5343339,1.403113 0,1.937408 0.535339,0.535308 1.402181,0.535308 1.937504,0 l 2.124894,-2.123893 c 0.420701,-0.420683 0.497498,-1.043353 0.255622,-1.552163 0.0043,-0.0037 0.0081,-0.0044 0.01242,-0.0084 l 1.030666,-1.030588 c 0.8711336,0.726112 1.9911406,1.163774 3.2140716,1.163885 2.774857,-2.73e-4 5.023697,-2.249019 5.023968,-5.023643 C 17.999647,6.249023 15.750803,4.000268 12.97596,4 Z m 0,8.220549 C 11.21142,12.219802 9.7794174,10.787836 9.7785654,9.023756 c 0.0012,-1.764133 1.4328286,-3.196123 3.1970906,-3.19692 1.764227,0.0014 3.196231,1.432756 3.197078,3.19692 -0.0013,1.76408 -1.432851,3.196013 -3.197078,3.196833 z"
     id="path2-3-6"
     style="fill:#e6e6e6;fill-opacity:1;stroke-width:0.0273451" />
</svg>
