<?xml version="1.0" encoding="UTF-8" standalone="no"?>
<svg
   viewBox="0 0 32 32"
   id="svg6"
   version="1.1"
   sodipodi:docname="media-seek-forward.svg"
   width="32"
   height="32"
   inkscape:version="1.3.2 (091e20ef0f, 2023-11-25)"
   xmlns:inkscape="http://www.inkscape.org/namespaces/inkscape"
   xmlns:sodipodi="http://sodipodi.sourceforge.net/DTD/sodipodi-0.dtd"
   xmlns="http://www.w3.org/2000/svg"
   xmlns:svg="http://www.w3.org/2000/svg">
  <defs
     id="defs1" />
  <sodipodi:namedview
     id="namedview1"
     pagecolor="#ffffff"
     bordercolor="#999999"
     borderopacity="1"
     inkscape:showpageshadow="2"
     inkscape:pageopacity="0"
     inkscape:pagecheckerboard="0"
     inkscape:deskcolor="#d1d1d1"
     inkscape:zoom="12.245804"
     inkscape:cx="15.842161"
     inkscape:cy="22.783314"
     inkscape:window-width="1920"
     inkscape:window-height="994"
     inkscape:window-x="0"
     inkscape:window-y="0"
     inkscape:window-maximized="1"
     inkscape:current-layer="svg6" />
  <style
     type="text/css"
     id="current-color-scheme">.ColorScheme-Text { color: #fcfcfc; } </style>
  <g
     id="media-seek-forward"
     style="fill:#d3dae3;fill-opacity:1">
    <rect
       id="rect127"
       style="opacity:0.00100002;fill:#d3dae3;fill-opacity:1"
       y="0"
       x="0"
       height="32"
       width="32" />
    <path
       inkscape:connector-curvature="0"
       id="path135"
       style="opacity:1;fill:#d3dae3;fill-opacity:1;stroke-width:1.2"
       d="M 16,4 A 12,12 0 0 0 4,16 12,12 0 0 0 16,28 12,12 0 0 0 28,16 12,12 0 0 0 16,4 Z m -5.981255,6.004696 a 1.3093406,1.3850913 0 0 1 0.0352,0 1.3093406,1.3850913 0 0 1 0.747656,0.208588 l 3.492184,2.306245 1.706244,1.127343 v -2.259378 a 1.3093406,1.3850913 0 0 1 1.253912,-1.382798 1.3093406,1.3850913 0 0 1 0.747657,0.208588 l 3.492187,2.306245 3.492175,2.308593 a 1.3093406,1.3850913 0 0 1 0,2.348437 l -3.492172,2.308588 -3.492187,2.306265 A 1.3093406,1.3850913 0 0 1 16,20.617186 v -2.259378 l -1.706245,1.127339 -3.492186,2.306265 A 1.3093406,1.3850913 0 0 1 8.8,20.617186 v -9.229692 a 1.3093406,1.3850913 0 0 1 1.218745,-1.382798 z" />
  </g>
</svg>
