<?xml version="1.0" encoding="UTF-8" standalone="no"?>
<svg
   viewBox="0 0 32 32"
   version="1.1"
   id="svg1"
   sodipodi:docname="media-eject.svg"
   width="32"
   height="32"
   inkscape:version="1.3.2 (091e20ef0f, 2023-11-25)"
   xmlns:inkscape="http://www.inkscape.org/namespaces/inkscape"
   xmlns:sodipodi="http://sodipodi.sourceforge.net/DTD/sodipodi-0.dtd"
   xmlns="http://www.w3.org/2000/svg"
   xmlns:svg="http://www.w3.org/2000/svg">
  <sodipodi:namedview
     id="namedview1"
     pagecolor="#ffffff"
     bordercolor="#000000"
     borderopacity="0.25"
     inkscape:showpageshadow="2"
     inkscape:pageopacity="0.0"
     inkscape:pagecheckerboard="0"
     inkscape:deskcolor="#d1d1d1"
     inkscape:zoom="8.5173039"
     inkscape:cx="16.319718"
     inkscape:cy="25.125322"
     inkscape:window-width="1920"
     inkscape:window-height="994"
     inkscape:window-x="0"
     inkscape:window-y="0"
     inkscape:window-maximized="1"
     inkscape:current-layer="svg1" />
  <defs
     id="defs1">
    <style
       type="text/css"
       id="style1">.ColorScheme-Text {
        color:#d8dee9;
      }</style>
  </defs>
  <g
     id="media-eject-5"
     style="fill:#d3dae3;fill-opacity:1">
    <rect
       id="rect166"
       style="opacity:0.00100002;fill:#d3dae3;fill-opacity:1"
       y="0"
       x="0"
       height="32"
       width="32" />
    <path
       inkscape:connector-curvature="0"
       id="path174"
       style="opacity:1;fill:#d3dae3;fill-opacity:1;stroke-width:1.2"
       d="M 16,4 A 12,12 0 0 0 4,16 12,12 0 0 0 16,28 12,12 0 0 0 28,16 12,12 0 0 0 16,4 Z m -0.0164,3.6 a 1.3850918,1.3094064 0 0 1 1.190626,0.614063 l 2.308593,3.492187 2.30625,3.492187 A 1.3850918,1.3094064 0 0 1 20.614844,17.2 h -9.229688 a 1.3850918,1.3094064 0 0 1 -1.382812,-1.253906 1.3850918,1.3094064 0 0 1 0.208593,-0.747657 l 2.30625,-3.492187 2.308594,-3.492187 A 1.3850918,1.3094064 0 0 1 15.983594,7.6 Z M 11.8,18.4 h 8.4 c 0.9972,0 1.8,0.8028 1.8,1.8 0,0.9972 -0.8028,1.8 -1.8,1.8 H 11.8 C 10.8028,22 10,21.1972 10,20.2 c 0,-0.9972 0.8028,-1.8 1.8,-1.8 z" />
  </g>
</svg>
