<?xml version="1.0" encoding="UTF-8" standalone="no"?>
<svg
   viewBox="0 0 32 32"
   id="svg6"
   version="1.1"
   sodipodi:docname="media-seek-backward.svg"
   width="32"
   height="32"
   inkscape:version="1.3.2 (091e20ef0f, 2023-11-25)"
   xmlns:inkscape="http://www.inkscape.org/namespaces/inkscape"
   xmlns:sodipodi="http://sodipodi.sourceforge.net/DTD/sodipodi-0.dtd"
   xmlns="http://www.w3.org/2000/svg"
   xmlns:svg="http://www.w3.org/2000/svg">
  <defs
     id="defs1" />
  <sodipodi:namedview
     id="namedview1"
     pagecolor="#ffffff"
     bordercolor="#999999"
     borderopacity="1"
     inkscape:showpageshadow="2"
     inkscape:pageopacity="0"
     inkscape:pagecheckerboard="0"
     inkscape:deskcolor="#d1d1d1"
     inkscape:zoom="9.9466905"
     inkscape:cx="16.286824"
     inkscape:cy="0"
     inkscape:window-width="1920"
     inkscape:window-height="994"
     inkscape:window-x="0"
     inkscape:window-y="0"
     inkscape:window-maximized="1"
     inkscape:current-layer="svg6" />
  <style
     type="text/css"
     id="current-color-scheme">.ColorScheme-Text { color: #fcfcfc; } </style>
  <g
     transform="matrix(-1,0,0,1,32,0)"
     id="media-seek-backward"
     style="fill:#d3dae3;fill-opacity:1">
    <rect
       id="rect140"
       y="0"
       x="0"
       height="32"
       width="32"
       style="opacity:0.00100002;fill:#d3dae3;fill-opacity:1" />
    <path
       inkscape:connector-curvature="0"
       id="path148"
       d="M 16,4 A 12,12 0 0 0 4,16 12,12 0 0 0 16,28 12,12 0 0 0 28,16 12,12 0 0 0 16,4 Z m -5.981251,6.004692 a 1.3093405,1.3850914 0 0 1 0.03518,0 1.3093405,1.3850914 0 0 1 0.747655,0.208589 l 3.492182,2.306248 1.706247,1.127346 v -2.259378 a 1.3093405,1.3850914 0 0 1 1.253909,-1.382805 1.3093405,1.3850914 0 0 1 0.74766,0.208589 l 3.492184,2.306248 3.492182,2.308596 a 1.3093405,1.3850914 0 0 1 0,2.348437 l -3.492182,2.308589 -3.492184,2.306261 A 1.3093405,1.3850914 0 0 1 16,20.617189 v -2.259378 l -1.706248,1.12734 -3.492185,2.306261 A 1.3093405,1.3850914 0 0 1 8.8,20.617189 v -9.229692 a 1.3093405,1.3850914 0 0 1 1.218749,-1.382805 z"
       style="opacity:1;fill:#d3dae3;fill-opacity:1;stroke-width:1.2" />
  </g>
</svg>
