<?xml version="1.0" encoding="UTF-8" standalone="no"?>
<svg
   viewBox="0 0 32 32"
   id="svg6"
   width="32"
   height="32"
   version="1.1"
   sodipodi:docname="media-skip-forward.svg"
   inkscape:version="1.3.2 (091e20ef0f, 2023-11-25)"
   xmlns:inkscape="http://www.inkscape.org/namespaces/inkscape"
   xmlns:sodipodi="http://sodipodi.sourceforge.net/DTD/sodipodi-0.dtd"
   xmlns="http://www.w3.org/2000/svg"
   xmlns:svg="http://www.w3.org/2000/svg">
  <defs
     id="defs1" />
  <sodipodi:namedview
     id="namedview1"
     pagecolor="#ffffff"
     bordercolor="#999999"
     borderopacity="1"
     inkscape:showpageshadow="2"
     inkscape:pageopacity="0"
     inkscape:pagecheckerboard="0"
     inkscape:deskcolor="#d1d1d1"
     inkscape:zoom="5.6126601"
     inkscape:cx="16.213346"
     inkscape:cy="58.439313"
     inkscape:window-width="1920"
     inkscape:window-height="994"
     inkscape:window-x="0"
     inkscape:window-y="0"
     inkscape:window-maximized="1"
     inkscape:current-layer="svg6" />
  <style
     type="text/css"
     id="current-color-scheme">.ColorScheme-Text { color: #fcfcfc; } </style>
  <g
     id="media-skip-forward-8"
     style="fill:#d3dae3;fill-opacity:1">
    <rect
       id="rect101"
       style="opacity:0.00100002;fill:#d3dae3;fill-opacity:1"
       y="0"
       x="0"
       height="32"
       width="32" />
    <path
       inkscape:connector-curvature="0"
       id="path109"
       style="opacity:1;fill:#d3dae3;fill-opacity:1;stroke-width:1.2"
       d="M 16,4 C 9.372587,4 4,9.372587 4,16 4,22.627413 9.372587,28 16,28 22.627413,28 28,22.627413 28,16 28,9.372587 22.627413,4 16,4 Z m 6,4.8 c 0.6648,0 1.2,0.5352 1.2,1.2 v 12 c 0,0.6648 -0.5352,1.2 -1.2,1.2 -0.6648,0 -1.2,-0.5352 -1.2,-1.2 v -4.317188 l -3.932812,2.49609 -4.364062,2.767972 C 11.413458,23.637294 10.001005,22.842435 10,21.538274 V 10.461726 c 5.46e-4,-0.890296 0.691944,-1.621998 1.567967,-1.659379 0.329483,-0.01403 0.655437,0.07348 0.935159,0.250779 L 16.867188,11.821098 20.8,14.317188 V 10 c 0,-0.6648 0.5352,-1.2 1.2,-1.2 z" />
  </g>
</svg>
