<?xml version="1.0" encoding="UTF-8" standalone="no"?>
<svg
   inkscape:version="1.3.2 (091e20ef0f, 2023-11-25)"
   sodipodi:docname="help.svg"
   style="enable-background:new"
   version="1.1"
   height="22"
   width="22"
   id="svg4306"
   xmlns:inkscape="http://www.inkscape.org/namespaces/inkscape"
   xmlns:sodipodi="http://sodipodi.sourceforge.net/DTD/sodipodi-0.dtd"
   xmlns="http://www.w3.org/2000/svg"
   xmlns:svg="http://www.w3.org/2000/svg"
   xmlns:rdf="http://www.w3.org/1999/02/22-rdf-syntax-ns#"
   xmlns:cc="http://creativecommons.org/ns#"
   xmlns:dc="http://purl.org/dc/elements/1.1/">
  <metadata
     id="metadata28">
    <rdf:RDF>
      <cc:Work
         rdf:about="">
        <dc:format>image/svg+xml</dc:format>
        <dc:type
           rdf:resource="http://purl.org/dc/dcmitype/StillImage" />
      </cc:Work>
    </rdf:RDF>
  </metadata>
  <defs
     id="defs26" />
  <sodipodi:namedview
     inkscape:bbox-nodes="true"
     inkscape:snap-bbox="true"
     inkscape:current-layer="svg4306"
     inkscape:window-maximized="1"
     inkscape:window-y="0"
     inkscape:window-x="0"
     inkscape:cy="16.978824"
     inkscape:cx="42.861178"
     inkscape:zoom="4.8295453"
     showgrid="false"
     id="namedview24"
     inkscape:window-height="996"
     inkscape:window-width="1920"
     inkscape:pageshadow="2"
     inkscape:pageopacity="0"
     guidetolerance="10"
     gridtolerance="10"
     objecttolerance="10"
     borderopacity="1"
     bordercolor="#666666"
     pagecolor="#ffffff"
     inkscape:document-rotation="0"
     inkscape:lockguides="false"
     inkscape:showpageshadow="2"
     inkscape:pagecheckerboard="0"
     inkscape:deskcolor="#d1d1d1">
    <inkscape:grid
       id="grid853"
       type="xygrid"
       originx="-22"
       originy="0"
       spacingy="1"
       spacingx="1"
       units="px"
       visible="false" />
  </sodipodi:namedview>
  <style
     id="current-color-scheme"
     type="text/css" />
  <g
     id="active-center"
     transform="translate(-22)">
    <rect
       style="opacity:0.013;fill:#000000;fill-opacity:1;stroke-width:1.02253"
       id="rect861"
       width="22"
       height="22"
       x="0"
       y="0" />
    <path
       d="m 10.835342,5 c 2.098423,0 4.164656,0.956326 4.164656,3.24245 0,2.10857 -2.442589,2.919182 -2.967503,3.680815 -0.393687,0.566939 -0.262456,1.362857 -1.344475,1.362857 -0.705663,0 -1.0498294,-0.566942 -1.0498294,-1.086125 0,-1.931017 2.8684594,-2.36816 2.8684594,-3.957547 0,-0.875512 -0.588051,-1.394695 -1.573505,-1.394695 -2.0971824,0.0012 -1.2776204,2.140408 -2.8672214,2.140408 -0.574434,0 -1.065923,-0.340409 -1.065923,-0.989387 C 6.9988006,6.409388 8.8347256,5 10.835342,5 Z m -0.08172,9.340408 c 0.736612,0 1.344475,0.599999 1.344475,1.329796 0,0.731018 -0.606624,1.329795 -1.344475,1.329795 -0.73785,0 -1.3444764,-0.598777 -1.3444764,-1.329795 0,-0.73102 0.6066264,-1.329796 1.3444764,-1.329796 z"
       id="path4-3"
       style="fill:#d3dae3;fill-opacity:1;stroke-width:0.0123121" />
  </g>
  <g
     id="hover-center">
    <rect
       y="0"
       x="0"
       height="22"
       width="22"
       id="rect861-6"
       style="opacity:0.00100002;fill:#000000;fill-opacity:1;stroke-width:1.02253" />
    <path
       d="m 10.835342,5 c 2.098423,0 4.164656,0.956326 4.164656,3.24245 0,2.10857 -2.442589,2.919182 -2.967503,3.680815 -0.393687,0.566939 -0.262456,1.362857 -1.344475,1.362857 -0.705663,0 -1.0498294,-0.566942 -1.0498294,-1.086125 0,-1.931017 2.8684594,-2.36816 2.8684594,-3.957547 0,-0.875512 -0.588051,-1.394695 -1.573505,-1.394695 -2.0971824,0.0012 -1.2776204,2.140408 -2.8672214,2.140408 -0.574434,0 -1.065923,-0.340409 -1.065923,-0.989387 C 6.9988006,6.409388 8.8347256,5 10.835342,5 Z m -0.08172,9.340408 c 0.736612,0 1.344475,0.599999 1.344475,1.329796 0,0.731018 -0.606624,1.329795 -1.344475,1.329795 -0.73785,0 -1.3444764,-0.598777 -1.3444764,-1.329795 0,-0.73102 0.6066264,-1.329796 1.3444764,-1.329796 z"
       id="path4-3-3"
       style="fill:#00ccff;fill-opacity:1;stroke-width:0.0123121;enable-background:new" />
  </g>
  <g
     id="pressed-center"
     transform="translate(22)">
    <rect
       style="opacity:0.00100002;fill:#000000;fill-opacity:1;stroke-width:1.02253"
       id="rect861-6-6"
       width="22"
       height="22"
       x="0"
       y="0" />
    <path
       d="m 10.835342,5 c 2.098423,0 4.164656,0.956326 4.164656,3.24245 0,2.10857 -2.442589,2.919182 -2.967503,3.680815 -0.393687,0.56694 -0.262456,1.362858 -1.344475,1.362858 -0.705663,0 -1.0498294,-0.566942 -1.0498294,-1.086126 0,-1.931017 2.8684594,-2.36816 2.8684594,-3.957547 0,-0.875512 -0.588051,-1.394695 -1.573505,-1.394695 -2.0971824,0.0012 -1.2776204,2.140408 -2.8672214,2.140408 -0.574434,0 -1.065923,-0.340409 -1.065923,-0.989387 C 6.9988006,6.409388 8.8347256,5 10.835342,5 Z m -0.08172,9.340409 c 0.736612,0 1.344475,0.599999 1.344475,1.329796 0,0.731018 -0.606624,1.329795 -1.344475,1.329795 -0.73785,0 -1.3444764,-0.598777 -1.3444764,-1.329795 0,-0.73102 0.6066264,-1.329796 1.3444764,-1.329796 z"
       id="path4-3-3-6"
       style="fill:#66e0ff;fill-opacity:1;stroke-width:0.0123121;enable-background:new" />
  </g>
  <g
     id="inactive-center">
    <rect
       y="0"
       x="44"
       height="22"
       width="22"
       id="rect861-6-2"
       style="opacity:0.00100002;fill:#000000;fill-opacity:1;stroke-width:1.02253" />
    <path
       d="m 54.835342,5 c 2.098423,0 4.164656,0.956326 4.164656,3.24245 0,2.10857 -2.442589,2.919182 -2.967503,3.680815 -0.393687,0.566939 -0.262456,1.362857 -1.344475,1.362857 -0.705663,0 -1.049829,-0.566942 -1.049829,-1.086125 0,-1.931017 2.868459,-2.36816 2.868459,-3.957547 0,-0.875512 -0.588051,-1.394695 -1.573505,-1.394695 -2.097182,0.0012 -1.27762,2.140408 -2.867221,2.140408 -0.574434,0 -1.065923,-0.340409 -1.065923,-0.989387 C 50.998801,6.409388 52.834726,5 54.835342,5 Z m -0.08172,9.340408 c 0.736612,0 1.344475,0.599999 1.344475,1.329796 0,0.731018 -0.606624,1.329795 -1.344475,1.329795 -0.73785,0 -1.344476,-0.598777 -1.344476,-1.329795 0,-0.73102 0.606626,-1.329796 1.344476,-1.329796 z"
       id="path4-3-3-1"
       style="fill:#455a87;fill-opacity:1;stroke-width:0.0123121;enable-background:new" />
  </g>
  <g
     id="deactivated-center">
    <rect
       y="0"
       x="66"
       height="22"
       width="22"
       id="rect861-6-2-7"
       style="opacity:0.00100002;fill:#000000;fill-opacity:1;stroke-width:1.02253" />
    <path
       d="m 76.835342,5 c 2.098423,0 4.164656,0.956326 4.164656,3.24245 0,2.10857 -2.442589,2.919182 -2.967503,3.680815 -0.393687,0.566939 -0.262456,1.362857 -1.344475,1.362857 -0.705663,0 -1.049829,-0.566942 -1.049829,-1.086125 0,-1.931017 2.868459,-2.36816 2.868459,-3.957547 0,-0.875512 -0.588051,-1.394695 -1.573505,-1.394695 -2.097182,0.0012 -1.27762,2.140408 -2.867221,2.140408 -0.574434,0 -1.065923,-0.340409 -1.065923,-0.989387 C 72.998801,6.409388 74.834726,5 76.835342,5 Z m -0.08172,9.340408 c 0.736612,0 1.344475,0.599999 1.344475,1.329796 0,0.731018 -0.606624,1.329795 -1.344475,1.329795 -0.73785,0 -1.344476,-0.598777 -1.344476,-1.329795 0,-0.73102 0.606626,-1.329796 1.344476,-1.329796 z"
       id="path4-3-3-1-2"
       style="fill:#455a87;fill-opacity:0.60000002;stroke-width:0.0123121;enable-background:new" />
  </g>
</svg>
