<?xml version="1.0" encoding="UTF-8" standalone="no"?>
<svg
   id="svg4306"
   width="22"
   height="22"
   version="1.1"
   style="enable-background:new"
   sodipodi:docname="keepabove.svg"
   inkscape:version="1.3.2 (091e20ef0f, 2023-11-25)"
   xmlns:inkscape="http://www.inkscape.org/namespaces/inkscape"
   xmlns:sodipodi="http://sodipodi.sourceforge.net/DTD/sodipodi-0.dtd"
   xmlns="http://www.w3.org/2000/svg"
   xmlns:svg="http://www.w3.org/2000/svg"
   xmlns:rdf="http://www.w3.org/1999/02/22-rdf-syntax-ns#"
   xmlns:cc="http://creativecommons.org/ns#"
   xmlns:dc="http://purl.org/dc/elements/1.1/">
  <metadata
     id="metadata24">
    <rdf:RDF>
      <cc:Work
         rdf:about="">
        <dc:format>image/svg+xml</dc:format>
        <dc:type
           rdf:resource="http://purl.org/dc/dcmitype/StillImage" />
      </cc:Work>
    </rdf:RDF>
  </metadata>
  <defs
     id="defs22" />
  <sodipodi:namedview
     pagecolor="#ffffff"
     bordercolor="#000000"
     borderopacity="1"
     objecttolerance="10"
     gridtolerance="10"
     guidetolerance="10"
     inkscape:pageopacity="0"
     inkscape:pageshadow="2"
     inkscape:window-width="1920"
     inkscape:window-height="996"
     id="namedview20"
     showgrid="false"
     inkscape:lockguides="false"
     inkscape:zoom="5.046171"
     inkscape:cx="28.932828"
     inkscape:cy="16.646285"
     inkscape:window-x="0"
     inkscape:window-y="0"
     inkscape:window-maximized="1"
     inkscape:current-layer="svg4306"
     inkscape:showpageshadow="2"
     inkscape:pagecheckerboard="0"
     inkscape:deskcolor="#cfcfcf">
    <inkscape:grid
       id="grid1"
       units="px"
       originx="23"
       originy="0"
       spacingx="1"
       spacingy="1"
       empcolor="#0099e5"
       empopacity="0.30196078"
       color="#0099e5"
       opacity="0.14901961"
       empspacing="5"
       dotted="false"
       gridanglex="30"
       gridanglez="30"
       visible="false" />
  </sodipodi:namedview>
  <g
     id="active-center"
     transform="translate(-23)">
    <rect
       id="rect4266"
       width="22"
       height="22"
       x="0"
       y="0"
       style="opacity:0.00100002;fill:#000000;fill-opacity:1;fill-rule:nonzero;stroke:none;stroke-width:2;stroke-linecap:round;stroke-linejoin:round;stroke-miterlimit:4;stroke-dasharray:none;stroke-opacity:1" />
    <path
       d="m 11.379067,6.6478504 7.467044,6.9974226 a 0.53336118,0.49982687 0 0 1 0.112171,0.545022 0.53336118,0.49982687 0 0 1 -0.490693,0.309701 h -4.800277 a 0.53336118,0.49982687 0 0 1 -0.53336,-0.499794 2.1334487,1.9993122 0 0 0 -4.2668932,0 0.53336118,0.49982687 0 0 1 -0.533342,0.499794 h -4.800381 a 0.53336118,0.49982687 0 0 1 -0.490693,-0.309701 0.44802338,0.4198545 0 0 1 -0.04248,-0.190093 0.53336118,0.49982687 0 0 1 0.154584,-0.354929 L 10.621864,6.6478504 a 0.53336118,0.49982687 0 0 1 0.757378,0 z"
       id="path4-3"
       style="color:#eceff4;fill:#d3dae3;fill-opacity:1;stroke-width:0.44715;enable-background:new"
       class="ColorScheme-Text" />
  </g>
  <g
     id="hover-center">
    <rect
       style="opacity:0.00100002;fill:#000000;fill-opacity:1;fill-rule:nonzero;stroke:none;stroke-width:2;stroke-linecap:round;stroke-linejoin:round;stroke-miterlimit:4;stroke-dasharray:none;stroke-opacity:1"
       id="rect4208"
       width="22"
       height="22"
       x="0"
       y="0" />
    <path
       d="m 11.379067,6.6478504 7.467044,6.9974226 a 0.53336118,0.49982687 0 0 1 0.112171,0.545022 0.53336118,0.49982687 0 0 1 -0.490693,0.309701 h -4.800277 a 0.53336118,0.49982687 0 0 1 -0.53336,-0.499794 2.1334487,1.9993122 0 0 0 -4.2668932,0 0.53336118,0.49982687 0 0 1 -0.533342,0.499794 h -4.800381 a 0.53336118,0.49982687 0 0 1 -0.490693,-0.309701 0.44802338,0.4198545 0 0 1 -0.04248,-0.190093 0.53336118,0.49982687 0 0 1 0.154584,-0.354929 L 10.621864,6.6478504 a 0.53336118,0.49982687 0 0 1 0.757378,0 z"
       id="path4-3-3"
       style="color:#eceff4;fill:#ffb380;fill-opacity:1;stroke-width:0.44715;enable-background:new"
       class="ColorScheme-Text" />
  </g>
  <g
     id="pressed-center"
     transform="translate(23)">
    <rect
       style="opacity:0.00100002;fill:#000000;fill-opacity:1;fill-rule:nonzero;stroke:none;stroke-width:2;stroke-linecap:round;stroke-linejoin:round;stroke-miterlimit:4;stroke-dasharray:none;stroke-opacity:1"
       id="rect4164"
       width="22"
       height="22"
       x="0"
       y="0" />
    <path
       d="m 11.379067,6.6478504 7.467044,6.9974226 a 0.53336118,0.49982687 0 0 1 0.112171,0.545022 0.53336118,0.49982687 0 0 1 -0.490693,0.309701 h -4.800277 a 0.53336118,0.49982687 0 0 1 -0.53336,-0.499794 2.1334487,1.9993122 0 0 0 -4.2668932,0 0.53336118,0.49982687 0 0 1 -0.533342,0.499794 h -4.800381 a 0.53336118,0.49982687 0 0 1 -0.490693,-0.309701 0.44802338,0.4198545 0 0 1 -0.04248,-0.190093 0.53336118,0.49982687 0 0 1 0.154584,-0.354929 L 10.621864,6.6478504 a 0.53336118,0.49982687 0 0 1 0.757378,0 z"
       id="path4-3-3-6"
       style="color:#eceff4;fill:#ffccaa;fill-opacity:1;stroke-width:0.44715;enable-background:new"
       class="ColorScheme-Text" />
  </g>
  <g
     id="inactive-center"
     transform="translate(46)">
    <rect
       style="opacity:0.00100002;fill:#000000;fill-opacity:1;fill-rule:nonzero;stroke:none;stroke-width:2;stroke-linecap:round;stroke-linejoin:round;stroke-miterlimit:4;stroke-dasharray:none;stroke-opacity:1"
       id="rect4179"
       width="22"
       height="22"
       x="0"
       y="0" />
    <path
       d="m 11.379067,6.6478504 7.467044,6.9974236 a 0.53336118,0.49982687 0 0 1 0.112171,0.545021 0.53336118,0.49982687 0 0 1 -0.490693,0.309701 h -4.800277 a 0.53336118,0.49982687 0 0 1 -0.53336,-0.499794 2.1334487,1.9993122 0 0 0 -4.266893,0 0.53336118,0.49982687 0 0 1 -0.533342,0.499794 H 3.533336 A 0.53336118,0.49982687 0 0 1 3.042643,14.190295 0.44802338,0.4198545 0 0 1 3.000163,14.000202 0.53336118,0.49982687 0 0 1 3.154747,13.645274 l 7.467117,-6.9974236 a 0.53336118,0.49982687 0 0 1 0.757378,0 z"
       id="path4-3-3-6-7"
       style="color:#eceff4;fill:#435b89;fill-opacity:1;stroke-width:0.44715;enable-background:new"
       class="ColorScheme-Text" />
  </g>
  <g
     id="deactivated-center"
     transform="translate(72)">
    <rect
       style="opacity:0.00100002;fill:#000000;fill-opacity:1;fill-rule:nonzero;stroke:none;stroke-width:2;stroke-linecap:round;stroke-linejoin:round;stroke-miterlimit:4;stroke-dasharray:none;stroke-opacity:1"
       id="rect4179-6"
       width="22"
       height="22"
       x="0"
       y="0" />
    <path
       d="m 11.379067,6.6478504 7.467044,6.9974236 a 0.53336118,0.49982687 0 0 1 0.112171,0.545021 0.53336118,0.49982687 0 0 1 -0.490693,0.309701 h -4.800277 a 0.53336118,0.49982687 0 0 1 -0.53336,-0.499794 2.1334487,1.9993122 0 0 0 -4.266893,0 0.53336118,0.49982687 0 0 1 -0.533342,0.499794 H 3.533336 A 0.53336118,0.49982687 0 0 1 3.042643,14.190295 0.44802338,0.4198545 0 0 1 3.000163,14.000202 0.53336118,0.49982687 0 0 1 3.154747,13.645274 l 7.467117,-6.9974236 a 0.53336118,0.49982687 0 0 1 0.757378,0 z"
       id="path4-3-3-6-7-3"
       style="color:#eceff4;fill:#435b89;fill-opacity:0.6;stroke-width:0.44715;enable-background:new"
       class="ColorScheme-Text" />
  </g>
</svg>
