<?xml version="1.0" encoding="UTF-8" standalone="no"?>
<svg
   id="svg4306"
   width="22"
   height="22"
   version="1.1"
   style="enable-background:new"
   sodipodi:docname="shade.svg"
   inkscape:version="1.3.2 (091e20ef0f, 2023-11-25)"
   xmlns:inkscape="http://www.inkscape.org/namespaces/inkscape"
   xmlns:sodipodi="http://sodipodi.sourceforge.net/DTD/sodipodi-0.dtd"
   xmlns="http://www.w3.org/2000/svg"
   xmlns:svg="http://www.w3.org/2000/svg"
   xmlns:rdf="http://www.w3.org/1999/02/22-rdf-syntax-ns#"
   xmlns:cc="http://creativecommons.org/ns#"
   xmlns:dc="http://purl.org/dc/elements/1.1/">
  <metadata
     id="metadata28">
    <rdf:RDF>
      <cc:Work
         rdf:about="">
        <dc:format>image/svg+xml</dc:format>
        <dc:type
           rdf:resource="http://purl.org/dc/dcmitype/StillImage" />
      </cc:Work>
    </rdf:RDF>
  </metadata>
  <defs
     id="defs26" />
  <sodipodi:namedview
     inkscape:document-rotation="0"
     pagecolor="#ffffff"
     bordercolor="#000000"
     borderopacity="1"
     objecttolerance="10"
     gridtolerance="10"
     guidetolerance="10"
     inkscape:pageopacity="0"
     inkscape:pageshadow="2"
     inkscape:window-width="1920"
     inkscape:window-height="996"
     id="namedview24"
     showgrid="false"
     inkscape:zoom="5.6568543"
     inkscape:cx="38.183766"
     inkscape:cy="30.49398"
     inkscape:window-x="0"
     inkscape:window-y="0"
     inkscape:window-maximized="1"
     inkscape:current-layer="svg4306"
     inkscape:snap-bbox="true"
     inkscape:bbox-nodes="true"
     inkscape:lockguides="false"
     inkscape:pagecheckerboard="false"
     showguides="false"
     inkscape:showpageshadow="true"
     inkscape:deskcolor="#cccccc">
    <inkscape:grid
       type="xygrid"
       id="grid221"
       originx="20"
       originy="0"
       spacingy="1"
       spacingx="1"
       units="px"
       visible="false" />
  </sodipodi:namedview>
  <style
     type="text/css"
     id="current-color-scheme" />
  <g
     id="active-center"
     transform="translate(-24)">
    <rect
       id="rect4266"
       width="22"
       height="22"
       x="0"
       y="-22"
       style="opacity:0.00100002;fill:#000000;fill-opacity:1;fill-rule:nonzero;stroke:none;stroke-width:2;stroke-linecap:round;stroke-linejoin:round;stroke-miterlimit:4;stroke-dasharray:none;stroke-opacity:1"
       transform="scale(1,-1)" />
    <path
       d="m 18.999999,9.79837 c 0,-0.440232 -0.472204,-0.798369 -1.052316,-0.798369 H 4.0532139 C 3.4719823,9.000001 3,9.358138 3,9.79837 v 2.314869 c 0,0.440063 0.4187677,0.88676 1.0000012,0.88676 H 17.947683 C 18.527795,12.999999 19,12.553302 19,12.113239 Z M 4.0000012,9.666667 v 0 0 h -0.026145 z"
       id="path2-3-35-6"
       style="color:#d1d5e9;fill:#d3dae3;fill-opacity:1;stroke-width:0.160089"
       sodipodi:nodetypes="sssssssssccccc"
       class="ColorScheme-Text" />
  </g>
  <g
     id="hover-center">
    <rect
       id="rect4266-6"
       width="22"
       height="22"
       x="0"
       y="-22"
       style="opacity:0.00100002;fill:#000000;fill-opacity:1;fill-rule:nonzero;stroke:none;stroke-width:2;stroke-linecap:round;stroke-linejoin:round;stroke-miterlimit:4;stroke-dasharray:none;stroke-opacity:1"
       transform="scale(1,-1)" />
    <path
       d="m 18.999999,9.79837 c 0,-0.440232 -0.472204,-0.798369 -1.052316,-0.798369 H 4.053214 C 3.471982,9.000001 3,9.358138 3,9.79837 v 2.314869 c 0,0.440063 0.418768,0.88676 1.000001,0.88676 H 17.947683 C 18.527795,12.999999 19,12.553302 19,12.113239 Z M 4.000001,9.666667 v 0 0 h -0.02614 z"
       id="path2-3-35-6-3"
       style="color:#d1d5e9;fill:#a366ff;fill-opacity:1;stroke-width:0.160089;enable-background:new"
       sodipodi:nodetypes="sssssssssccccc"
       class="ColorScheme-Text" />
  </g>
  <g
     id="pressed-center"
     transform="translate(25)">
    <rect
       id="rect4266-6-5"
       width="22"
       height="22"
       x="0"
       y="-22"
       style="opacity:0.00100002;fill:#000000;fill-opacity:1;fill-rule:nonzero;stroke:none;stroke-width:2;stroke-linecap:round;stroke-linejoin:round;stroke-miterlimit:4;stroke-dasharray:none;stroke-opacity:1"
       transform="scale(1,-1)" />
    <path
       d="m 18.999999,9.79837 c 0,-0.440232 -0.472204,-0.798369 -1.052316,-0.798369 H 4.053214 C 3.471982,9.000001 3,9.358138 3,9.79837 v 2.314869 c 0,0.440063 0.418768,0.88676 1.000001,0.88676 H 17.947683 C 18.527795,12.999999 19,12.553302 19,12.113239 Z M 4.000001,9.666667 v 0 0 h -0.02614 z"
       id="path2-3-35-6-6"
       style="color:#d1d5e9;fill:#c299ff;fill-opacity:1;stroke-width:0.160089;enable-background:new"
       sodipodi:nodetypes="sssssssssccccc"
       class="ColorScheme-Text" />
  </g>
  <g
     id="inactive-center"
     transform="translate(50)">
    <rect
       id="rect4266-9"
       width="22"
       height="22"
       x="0"
       y="-22"
       style="opacity:0.00100002;fill:#000000;fill-opacity:1;fill-rule:nonzero;stroke:none;stroke-width:2;stroke-linecap:round;stroke-linejoin:round;stroke-miterlimit:4;stroke-dasharray:none;stroke-opacity:1"
       transform="scale(1,-1)" />
    <path
       d="m 18.999999,9.79837 c 0,-0.440232 -0.472204,-0.798369 -1.052316,-0.798369 H 4.053214 C 3.471982,9.000001 3,9.358138 3,9.79837 v 2.314869 c 0,0.440063 0.418768,0.88676 1.000001,0.88676 h 13.947682 c 0.580112,0 1.052318,-0.446697 1.052318,-0.88676 z M 4.000001,9.666667 v 0 0 h -0.02614 z"
       id="path2-3-35-6-6-7"
       style="color:#d1d5e9;fill:#455a87;fill-opacity:1;stroke-width:0.160089;enable-background:new"
       sodipodi:nodetypes="sssssssssccccc"
       class="ColorScheme-Text" />
  </g>
  <g
     id="deactivated-center"
     transform="translate(75)">
    <rect
       id="rect4266-9-7"
       width="22"
       height="22"
       x="0"
       y="-22"
       style="opacity:0.00100002;fill:#000000;fill-opacity:1;fill-rule:nonzero;stroke:none;stroke-width:2;stroke-linecap:round;stroke-linejoin:round;stroke-miterlimit:4;stroke-dasharray:none;stroke-opacity:1"
       transform="scale(1,-1)" />
    <path
       d="M 19,9.79837 C 19,9.358138 18.527795,9.000001 17.947683,9.000001 H 4.053214 C 3.471982,9.000001 3,9.358138 3,9.79837 v 2.314869 c 0,0.440063 0.418768,0.88676 1.000001,0.88676 H 17.947683 C 18.527795,13 19,12.553303 19,12.113239 Z M 4.000001,9.666668 v 0 0 h -0.02614 z"
       id="path2-3-35-6-6-7-5"
       style="color:#d1d5e9;fill:#455a87;fill-opacity:0.6;stroke-width:0.160089;enable-background:new"
       sodipodi:nodetypes="sssssssssccccc"
       class="ColorScheme-Text" />
  </g>
</svg>
