<?xml version="1.0" encoding="UTF-8" standalone="no"?>
<svg
   viewBox="0 0 32 32"
   version="1.1"
   id="svg2"
   sodipodi:docname="media-mount.svg"
   inkscape:version="1.3.2 (091e20ef0f, 2023-11-25)"
   width="32"
   height="32"
   xmlns:inkscape="http://www.inkscape.org/namespaces/inkscape"
   xmlns:sodipodi="http://sodipodi.sourceforge.net/DTD/sodipodi-0.dtd"
   xmlns="http://www.w3.org/2000/svg"
   xmlns:svg="http://www.w3.org/2000/svg">
  <defs
     id="defs2" />
  <sodipodi:namedview
     id="namedview2"
     pagecolor="#ffffff"
     bordercolor="#999999"
     borderopacity="1"
     inkscape:showpageshadow="2"
     inkscape:pageopacity="0"
     inkscape:pagecheckerboard="0"
     inkscape:deskcolor="#d1d1d1"
     showgrid="true"
     inkscape:zoom="8.6590909"
     inkscape:cx="16.283465"
     inkscape:cy="-2.3097113"
     inkscape:window-width="1920"
     inkscape:window-height="994"
     inkscape:window-x="0"
     inkscape:window-y="0"
     inkscape:window-maximized="1"
     inkscape:current-layer="svg2">
    <inkscape:grid
       id="grid2"
       units="px"
       originx="5"
       originy="-34"
       spacingx="1"
       spacingy="1"
       empcolor="#0099e5"
       empopacity="0.30196078"
       color="#0099e5"
       opacity="0.14902"
       empspacing="5"
       dotted="false"
       gridanglex="30"
       gridanglez="30"
       visible="true" />
  </sodipodi:namedview>
  <style
     type="text/css"
     id="current-color-scheme">.ColorScheme-Text { color: #fcfcfc; } </style>
  <g
     transform="matrix(0,1,1,0,0,0)"
     id="media-skip-backward"
     style="fill:#d3dae3;fill-opacity:1">
    <rect
       id="rect114"
       y="0"
       x="0"
       height="32"
       width="32"
       style="opacity:0.00100002;fill:#d3dae3;fill-opacity:1" />
    <path
       inkscape:connector-curvature="0"
       id="path122"
       d="M 16,4 C 9.3725849,4 4,9.372586 4,16 4,22.627414 9.3725849,28 16,28 22.627414,28 28,22.627414 28,16 28,9.372586 22.627414,4 16,4 Z m 6,4.8 c 0.6648,0 1.2,0.5352 1.2,1.2 v 12 c 0,0.6648 -0.5352,1.2 -1.2,1.2 -0.6648,0 -1.2,-0.5352 -1.2,-1.2 v -4.317189 l -3.932811,2.496091 -4.364064,2.767973 C 11.41346,23.637294 10.001004,22.842444 10,21.538275 v -11.07655 c 5.43e-4,-0.890294 0.691946,-1.621999 1.567967,-1.659379 0.329483,-0.01402 0.655438,0.07347 0.935158,0.250779 L 16.867189,11.821098 20.8,14.317189 V 10 c 0,-0.6648 0.5352,-1.2 1.2,-1.2 z"
       style="opacity:1;fill:#d3dae3;fill-opacity:1;stroke-width:1.2" />
  </g>
</svg>
