<?xml version="1.0" encoding="UTF-8" standalone="no"?>
<svg
   width="32"
   height="32"
   version="1.1"
   id="svg12"
   sodipodi:docname="plasmavault.svg"
   inkscape:version="1.3.2 (091e20ef0f, 2023-11-25)"
   xmlns:inkscape="http://www.inkscape.org/namespaces/inkscape"
   xmlns:sodipodi="http://sodipodi.sourceforge.net/DTD/sodipodi-0.dtd"
   xmlns="http://www.w3.org/2000/svg"
   xmlns:svg="http://www.w3.org/2000/svg"
   xmlns:rdf="http://www.w3.org/1999/02/22-rdf-syntax-ns#"
   xmlns:cc="http://creativecommons.org/ns#"
   xmlns:dc="http://purl.org/dc/elements/1.1/">
  <style
     id="current-color-scheme"
     type="text/css">.ColorScheme-Text { color:#d6dbf1; }
</style>
  <metadata
     id="metadata18">
    <rdf:RDF>
      <cc:Work
         rdf:about="">
        <dc:format>image/svg+xml</dc:format>
        <dc:type
           rdf:resource="http://purl.org/dc/dcmitype/StillImage" />
      </cc:Work>
    </rdf:RDF>
  </metadata>
  <defs
     id="defs16" />
  <sodipodi:namedview
     pagecolor="#ffffff"
     bordercolor="#666666"
     borderopacity="1"
     objecttolerance="10"
     gridtolerance="10"
     guidetolerance="10"
     inkscape:pageopacity="0"
     inkscape:pageshadow="2"
     inkscape:window-width="1920"
     inkscape:window-height="996"
     id="namedview14"
     showgrid="false"
     inkscape:zoom="6.9384855"
     inkscape:cx="26.230508"
     inkscape:cy="18.591954"
     inkscape:window-x="0"
     inkscape:window-y="0"
     inkscape:window-maximized="1"
     inkscape:current-layer="svg12"
     inkscape:document-rotation="0"
     inkscape:pagecheckerboard="0"
     inkscape:lockguides="false"
     inkscape:showpageshadow="2"
     inkscape:deskcolor="#d1d1d1">
    <inkscape:grid
       type="xygrid"
       id="grid860"
       originx="0"
       originy="0"
       spacingy="1"
       spacingx="1"
       units="px"
       visible="false" />
  </sodipodi:namedview>
  <g
     id="plasmavault">
    <rect
       style="opacity:0.00100002;fill:#a8aeca;fill-opacity:1"
       width="32"
       height="32"
       x="0"
       y="0"
       id="rect7" />
    <path
       style="fill:#d3dae3;fill-opacity:1;stroke:none;stroke-width:1.51477"
       d="M 7.789952,4 A 3.809644,3.809644 0 0 0 4,7.789952 V 24.210048 A 3.809644,3.809644 0 0 0 7.789952,28 H 24.210048 A 3.809644,3.809644 0 0 0 28,24.210048 V 10.390811 A 3.809644,3.809644 0 0 0 24.210048,6.6008584 H 17.21636 L 15.878819,5.2633173 15.221409,4.6074224 14.615501,4.0015148 Z m 0,1.2633173 h 5.934865 L 15.186569,6.7250694 9.097197,12.778086 H 5.263317 V 7.789952 c 0,-1.3996465 1.126989,-2.5266347 2.526635,-2.5266347 z m 4.998738,5.9999997 h 13.947993 v 12.946731 c 0,1.399647 -1.126988,2.526635 -2.526635,2.526635 H 7.789952 A 2.5205756,2.5205756 0 0 1 5.263317,24.210048 v -9.917193 h 4.485231 v -0.01212 l 0.01212,0.01212 z"
       class="ColorScheme-Text "
       id="path4" />
  </g>
</svg>
