<?xml version="1.0" encoding="UTF-8" standalone="no"?>
<svg
   id="svg7"
   version="1.1"
   viewBox="0 0 22 22"
   sodipodi:docname="update-none.svg"
   inkscape:version="1.3.2 (091e20ef0f, 2023-11-25)"
   xmlns:inkscape="http://www.inkscape.org/namespaces/inkscape"
   xmlns:sodipodi="http://sodipodi.sourceforge.net/DTD/sodipodi-0.dtd"
   xmlns="http://www.w3.org/2000/svg"
   xmlns:svg="http://www.w3.org/2000/svg">
  <sodipodi:namedview
     id="namedview1"
     pagecolor="#ffffff"
     bordercolor="#999999"
     borderopacity="1"
     inkscape:showpageshadow="2"
     inkscape:pageopacity="0"
     inkscape:pagecheckerboard="0"
     inkscape:deskcolor="#d1d1d1"
     showgrid="true"
     inkscape:zoom="34.727273"
     inkscape:cx="11"
     inkscape:cy="11"
     inkscape:window-width="1920"
     inkscape:window-height="996"
     inkscape:window-x="0"
     inkscape:window-y="0"
     inkscape:window-maximized="1"
     inkscape:current-layer="svg7">
    <inkscape:grid
       id="grid1"
       units="px"
       originx="0"
       originy="0"
       spacingx="1"
       spacingy="1"
       empcolor="#0099e5"
       empopacity="0.30196078"
       color="#0099e5"
       opacity="0.14901961"
       empspacing="5"
       dotted="false"
       gridanglex="30"
       gridanglez="30"
       visible="true" />
  </sodipodi:namedview>
  <defs
     id="defs3">
    <style
       type="text/css"
       id="current-color-scheme">.ColorScheme-Text { color:#eff0f1; }
</style>
  </defs>
  <path
     id="path842"
     d="m 9,3.150019 c -3.4507901,0.885139 -6,4.0078621 -6,7.724398 0,0 1e-6,0.498474 0.5,0.498474 0.499999,0 0.5,-0.498474 0.5,-0.498474 0,-3.1613082 2.108555,-5.8305622 5,-6.6885069 0,0 0.5195312,-0.090716 0.5195312,-0.5179455 C 9.5195312,3.1387178 9,3.150019 9,3.150019 Z m 4,0 c 0,0 -0.519531,-9.2e-6 -0.519531,0.5179456 0,0.4342261 0.519531,0.5179455 0.519531,0.5179455 2.891445,0.8579447 5,3.5271987 5,6.6885069 -0.0021,0.333752 0,0.170345 0,0.498474 0,0 0,0.498474 0.5,0.498474 0.5,0 0.5,-0.498474 0.5,-0.498474 0,-0.332511 -0.0032,-0.164979 0,-0.498474 C 19,7.1578811 16.450791,4.035158 13,3.150019 Z M 3,12.868313 v 0.996948 2.990843 c 0,0 1e-6,0.498474 0.5,0.498474 0.499999,0 0.5,-0.498474 0.5,-0.498474 v -2.188611 c 1.3909787,2.565051 4.0751968,4.168875 7,4.182507 0.334475,-0.0025 0.16303,0 0.496094,0 0,0 0.503906,-0.07009 0.503906,-0.572466 0,-0.502368 -0.503906,-0.424482 -0.503906,-0.424482 -0.253752,0 -0.161321,-0.0021 -0.496094,0 -2.6987038,-0.0054 -5.1539625,-1.556924 -6.3105469,-3.987791 H 7 c 0,0 0.5,-1e-6 0.5,-0.498474 C 7.5,12.868314 7,12.868313 7,12.868313 H 4.3027344 3.2695312 Z m 10.603888,2.990844 0.707031,0.704873 2.121094,2.11462 h 0.002 c 0.09475,0.108768 0.232314,0.171258 0.376906,0.17135 0.276142,0 0.489081,-0.223175 0.489081,-0.498474 4.74e-4,-0.14483 0.01092,0 -1e-6,-0.377749 v -2.11462 -2.11462 -0.002 c 0,0 -9e-5,-0.231605 0,-0.375756 0,-0.275299 -0.212938,-0.498474 -0.48908,-0.498474 -0.144592,9.2e-5 -0.282064,0.06258 -0.376953,0.171351 h -0.002 l -2.121047,2.11462 z"
     class="ColorScheme-Text "
     fill="currentColor"
     stroke-linecap="round"
     style="stroke-width:1;paint-order:markers fill stroke"
     sodipodi:nodetypes="ccsccsccscccsccccccsccccsccccscccccccccccccccccccc" />
</svg>
